<svg width="200" height="200" viewBox="0 0 200 200" fill="none" xmlns="http://www.w3.org/2000/svg">
<path d="M200 152.96H0V153.06H200V152.96Z" fill="#EBEBEB"/>
<path d="M179.96 159.396H166.712V159.496H179.96V159.396Z" fill="#EBEBEB"/>
<path d="M132.488 160.484H129.012V160.584H132.488V160.484Z" fill="#EBEBEB"/>
<path d="M166.312 155.684H158.636V155.784H166.312V155.684Z" fill="#EBEBEB"/>
<path d="M38.26 156.356H20.984V156.456H38.26V156.356Z" fill="#EBEBEB"/>
<path d="M44.356 156.356H41.824V156.456H44.356V156.356Z" fill="#EBEBEB"/>
<path d="M90.06 158.044H52.588V158.144H90.06V158.044Z" fill="#EBEBEB"/>
<path d="M94.7999 135.12H17.5639C16.9589 135.119 16.379 134.878 15.9515 134.45C15.524 134.021 15.2839 133.441 15.2839 132.836V24.264C15.2892 23.6624 15.5316 23.0872 15.9585 22.6633C16.3854 22.2394 16.9623 22.001 17.5639 22H94.7999C95.4057 22 95.9866 22.2406 96.415 22.669C96.8433 23.0973 97.0839 23.6782 97.0839 24.284V132.836C97.0839 133.442 96.8433 134.023 96.415 134.451C95.9866 134.879 95.4057 135.12 94.7999 135.12ZM17.5639 22.08C16.9854 22.0811 16.4309 22.3116 16.0222 22.7211C15.6135 23.1306 15.3839 23.6855 15.3839 24.264V132.836C15.3839 133.415 15.6135 133.969 16.0222 134.379C16.4309 134.788 16.9854 135.019 17.5639 135.02H94.7999C95.3788 135.019 95.9337 134.788 96.3431 134.379C96.7524 133.97 96.9829 133.415 96.9839 132.836V24.264C96.9829 23.6851 96.7524 23.1302 96.3431 22.7208C95.9337 22.3115 95.3788 22.0811 94.7999 22.08H17.5639Z" fill="#EBEBEB"/>
<path d="M181.324 135.12H104.084C103.479 135.119 102.898 134.878 102.47 134.45C102.042 134.022 101.801 133.441 101.8 132.836V24.264C101.806 23.662 102.05 23.0868 102.477 22.663C102.905 22.2392 103.482 22.001 104.084 22H181.324C181.925 22.0021 182.501 22.2409 182.927 22.6647C183.353 23.0885 183.595 23.6631 183.6 24.264V132.836C183.6 133.44 183.361 134.02 182.934 134.448C182.507 134.876 181.928 135.118 181.324 135.12ZM104.084 22.08C103.505 22.0811 102.95 22.3115 102.541 22.7208C102.132 23.1302 101.901 23.6851 101.9 24.264V132.836C101.901 133.415 102.132 133.97 102.541 134.379C102.95 134.788 103.505 135.019 104.084 135.02H181.324C181.903 135.019 182.458 134.788 182.867 134.379C183.277 133.97 183.507 133.415 183.508 132.836V24.264C183.507 23.6851 183.277 23.1302 182.867 22.7208C182.458 22.3115 181.903 22.0811 181.324 22.08H104.084Z" fill="#EBEBEB"/>
<path d="M115.876 69.624H170.988V33.532L115.876 33.532V69.624Z" fill="#E6E6E6"/>
<path d="M114.192 69.624H170.2V33.532L114.192 33.532V69.624Z" fill="#F0F0F0"/>
<path d="M115.876 76.704H170.988V69.62H115.876V76.704Z" fill="#E6E6E6"/>
<path d="M111.396 76.704H167.404V69.62H111.396V76.704Z" fill="#F0F0F0"/>
<path d="M167.848 67.2719V35.8879H116.548V67.2719H167.848Z" fill="#FAFAFA"/>
<path d="M156.28 67.2681L149.728 35.8881H139.504L146.056 67.2681H156.28Z" fill="white"/>
<path d="M166.76 64.928C166.782 64.928 166.805 64.9235 166.825 64.9148C166.846 64.9061 166.865 64.8934 166.88 64.8774C166.896 64.8614 166.908 64.8424 166.916 64.8215C166.925 64.8007 166.928 64.7784 166.928 64.756V37.42C166.928 37.3754 166.91 37.3327 166.879 37.3012C166.847 37.2697 166.805 37.252 166.76 37.252C166.738 37.2515 166.716 37.2554 166.695 37.2637C166.674 37.2719 166.656 37.2843 166.64 37.3C166.624 37.3157 166.612 37.3344 166.604 37.3551C166.595 37.3757 166.591 37.3978 166.592 37.42V64.756C166.591 64.7784 166.595 64.8007 166.604 64.8215C166.612 64.8424 166.624 64.8614 166.64 64.8774C166.655 64.8934 166.674 64.9061 166.695 64.9148C166.715 64.9235 166.738 64.928 166.76 64.928Z" fill="#F0F0F0"/>
<path d="M143.86 67.2681L137.308 35.8881H133.32L139.876 67.2681H143.86Z" fill="white"/>
<path d="M116.848 67.2721V35.8881H116.548V67.2721H116.848Z" fill="#E6E6E6"/>
<path opacity="0.6" d="M113.64 39.436H168.752L168.968 36.8H113.856L113.64 39.436Z" fill="#EBEBEB"/>
<path opacity="0.6" d="M113.64 43.756H168.752L168.968 41.124H113.856L113.64 43.756Z" fill="#EBEBEB"/>
<path opacity="0.6" d="M113.64 48.076H168.752L168.968 45.444H113.856L113.64 48.076Z" fill="#EBEBEB"/>
<path opacity="0.6" d="M113.64 52.4H168.752L168.968 49.764H113.856L113.64 52.4Z" fill="#EBEBEB"/>
<path opacity="0.6" d="M113.64 56.72H168.752L168.968 54.084H113.856L113.64 56.72Z" fill="#EBEBEB"/>
<path opacity="0.6" d="M113.64 61.0401H168.752L168.968 58.4041H113.856L113.64 61.0401Z" fill="#EBEBEB"/>
<path d="M163.076 126.712H151.52V128.992H163.076V126.712Z" fill="#E6E6E6"/>
<path d="M129.724 152.96H131.856V100.532H129.724V152.96Z" fill="#E6E6E6"/>
<path d="M122.332 128.992H151.516V126.712H122.332V128.992Z" fill="#F5F5F5"/>
<path d="M163.076 139.18H151.52V141.46H163.076V139.18Z" fill="#E6E6E6"/>
<path d="M122.332 141.456H151.516V139.176H122.332V141.456Z" fill="#F5F5F5"/>
<path d="M163.076 101.78H151.52V104.06H163.076V101.78Z" fill="#E6E6E6"/>
<path d="M122.332 104.056H151.516V101.776H122.332V104.056Z" fill="#F5F5F5"/>
<path d="M163.076 114.244H151.52V116.524H163.076V114.244Z" fill="#E6E6E6"/>
<path d="M122.332 116.524H151.516V114.244H122.332V116.524Z" fill="#F5F5F5"/>
<path d="M158.912 152.96H161.044V100.532H158.912V152.96Z" fill="#E6E6E6"/>
<path d="M149.384 152.96H151.516V100.532H149.384V152.96Z" fill="#F5F5F5"/>
<path d="M122.332 152.96H124.464V100.532H122.332V152.96Z" fill="#F5F5F5"/>
<path d="M26.152 152.96H47.984L47.984 110.604H26.152L26.152 152.96Z" fill="#E6E6E6"/>
<path d="M31.9801 152.96H26.1481V147.112H38.0921L31.9801 152.96Z" fill="#FAFAFA"/>
<path d="M85.672 152.96H107.504V110.604H85.672V152.96Z" fill="#E6E6E6"/>
<path d="M26.152 150.944H90.764V110.6H26.152V150.944Z" fill="#FAFAFA"/>
<path d="M84.9321 152.96H90.7601V147.112H78.8201L84.9321 152.96Z" fill="#FAFAFA"/>
<path d="M30.672 135.732H86.24V125.636H30.672V135.732Z" fill="#F0F0F0"/>
<path d="M30.672 147.984H86.24V137.888H30.672V147.984Z" fill="#F0F0F0"/>
<path d="M75.6801 126.716H41.2361C40.7502 126.716 40.2842 126.523 39.9406 126.179C39.5971 125.836 39.4041 125.37 39.4041 124.884V124.76H77.5081V124.884C77.5081 125.369 77.3156 125.834 76.9729 126.178C76.6302 126.521 76.1652 126.715 75.6801 126.716Z" fill="#FAFAFA"/>
<path d="M30.672 123.476H86.24V113.38H30.672V123.476Z" fill="#F0F0F0"/>
<path d="M75.6801 114.46H41.2361C40.7502 114.46 40.2842 114.267 39.9406 113.923C39.5971 113.58 39.4041 113.114 39.4041 112.628V112.504H77.5081V112.628C77.5081 113.113 77.3156 113.579 76.9729 113.922C76.6302 114.265 76.1652 114.459 75.6801 114.46Z" fill="#FAFAFA"/>
<path d="M75.6801 138.972H41.2361C40.7502 138.972 40.2842 138.779 39.9406 138.435C39.5971 138.092 39.4041 137.626 39.4041 137.14V137.016H77.5081V137.14C77.5081 137.625 77.3156 138.091 76.9729 138.434C76.6302 138.778 76.1652 138.971 75.6801 138.972Z" fill="#FAFAFA"/>
<path d="M29.628 69.624H84.74V33.532L29.628 33.532L29.628 69.624Z" fill="#E6E6E6"/>
<path d="M27.9481 69.624H83.9561V33.532L27.9481 33.532L27.9481 69.624Z" fill="#F0F0F0"/>
<path d="M29.628 76.704H84.74V69.62H29.628V76.704Z" fill="#E6E6E6"/>
<path d="M25.144 76.704H81.152V69.62H25.144V76.704Z" fill="#F0F0F0"/>
<path d="M81.6 67.2721V35.8881H30.3V67.2721H81.6Z" fill="#FAFAFA"/>
<path d="M70.032 67.2681L63.48 35.8881H53.256L59.808 67.2681H70.032Z" fill="white"/>
<path d="M80.508 64.928C80.5304 64.928 80.5526 64.9235 80.5732 64.9148C80.5939 64.9061 80.6126 64.8934 80.6282 64.8774C80.6439 64.8614 80.6562 64.8424 80.6644 64.8215C80.6726 64.8007 80.6765 64.7784 80.676 64.756V37.42C80.6766 37.3978 80.6726 37.3757 80.6643 37.3551C80.6561 37.3344 80.6437 37.3157 80.628 37.3C80.6123 37.2843 80.5936 37.2719 80.5729 37.2637C80.5523 37.2554 80.5302 37.2515 80.508 37.252C80.4635 37.252 80.4207 37.2697 80.3892 37.3012C80.3577 37.3327 80.34 37.3754 80.34 37.42V64.756C80.3395 64.7784 80.3434 64.8007 80.3516 64.8215C80.3598 64.8424 80.3721 64.8614 80.3878 64.8774C80.4034 64.8934 80.4221 64.9061 80.4428 64.9148C80.4634 64.9235 80.4856 64.928 80.508 64.928Z" fill="#F0F0F0"/>
<path d="M57.612 67.2681L51.06 35.8881H47.072L53.624 67.2681H57.612Z" fill="white"/>
<path d="M30.6 67.2721L30.6 35.8881H30.3L30.3 67.2721H30.6Z" fill="#E6E6E6"/>
<path opacity="0.6" d="M27.3881 39.436H82.5001L82.7161 36.8H27.6041L27.3881 39.436Z" fill="#EBEBEB"/>
<path opacity="0.6" d="M27.3881 40.924H82.5001L82.7161 38.288H27.6041L27.3881 40.924Z" fill="#EBEBEB"/>
<path opacity="0.6" d="M27.3881 42.408H82.5001L82.7161 39.776H27.6041L27.3881 42.408Z" fill="#EBEBEB"/>
<path opacity="0.6" d="M27.3881 43.896H82.5001L82.7161 41.26H27.6041L27.3881 43.896Z" fill="#EBEBEB"/>
<path opacity="0.6" d="M27.3881 45.38H82.5001L82.7161 42.748H27.6041L27.3881 45.38Z" fill="#EBEBEB"/>
<path opacity="0.6" d="M27.3881 46.8681H82.5001L82.7161 44.2321H27.6041L27.3881 46.8681Z" fill="#EBEBEB"/>
<path d="M38.408 109.308H40.312V88.072H38.408V109.308Z" fill="#F5F5F5"/>
<path d="M38.648 109.296H39.188V88.06H38.648V109.296Z" fill="#FAFAFA"/>
<path d="M39.412 109.296H39.624V88.06H39.412V109.296Z" fill="#FAFAFA"/>
<path d="M46.412 110.604H32.316C32.316 110.133 32.5031 109.681 32.8362 109.348C33.1692 109.015 33.621 108.828 34.092 108.828H44.632C45.103 108.828 45.5547 109.015 45.8878 109.348C46.2209 109.681 46.408 110.133 46.408 110.604H46.412Z" fill="#F0F0F0"/>
<path d="M35.936 101.256C36.081 101.255 36.2198 101.197 36.3224 101.094C36.4249 100.992 36.483 100.853 36.484 100.708V86.8C36.484 86.6546 36.4263 86.5152 36.3235 86.4125C36.2208 86.3097 36.0814 86.252 35.936 86.252C35.8637 86.2514 35.792 86.2652 35.7251 86.2925C35.6581 86.3198 35.5973 86.3601 35.546 86.411C35.4946 86.462 35.4539 86.5226 35.4261 86.5893C35.3983 86.6561 35.384 86.7277 35.384 86.8V100.724C35.3892 100.867 35.4497 101.002 35.5526 101.101C35.6556 101.201 35.793 101.256 35.936 101.256Z" fill="#F0F0F0"/>
<path d="M30.828 93.1201H47.888L45.924 81.2001H32.792L30.828 93.1201Z" fill="#E0E0E0"/>
<path d="M100 171.024C142.833 171.024 177.556 168.997 177.556 166.496C177.556 163.995 142.833 161.968 100 161.968C57.167 161.968 22.444 163.995 22.444 166.496C22.444 168.997 57.167 171.024 100 171.024Z" fill="#F5F5F5"/>
<path d="M41.6475 80.9437L41.2485 80.9724L41.7799 88.3493L42.1789 88.3206L41.6475 80.9437Z" fill="#6F4A8E"/>
<path d="M42.45 92.1287L42.051 92.1575L42.251 94.9343L42.65 94.9055L42.45 92.1287Z" fill="#6F4A8E"/>
<path d="M135.085 126.064H49.4206C48.467 126.047 47.5536 125.677 46.8563 125.027C46.1591 124.376 45.7274 123.49 45.6446 122.54L41.4366 64.088C41.3974 63.6372 41.4532 63.1832 41.6001 62.7553C41.7471 62.3273 41.9821 61.9349 42.29 61.6033C42.5979 61.2717 42.9718 61.0082 43.3876 60.8299C43.8035 60.6516 44.2521 60.5624 44.7046 60.568H130.369C131.322 60.585 132.234 60.954 132.932 61.6039C133.629 62.2538 134.061 63.1386 134.145 64.088L138.353 122.54C138.392 122.991 138.336 123.445 138.189 123.873C138.042 124.301 137.807 124.694 137.499 125.026C137.192 125.358 136.818 125.622 136.402 125.8C135.986 125.979 135.537 126.069 135.085 126.064Z" fill="#6F4A8E"/>
<path d="M135.412 126.064H49.7481C48.7945 126.047 47.8811 125.677 47.1839 125.027C46.4866 124.376 46.055 123.49 45.9721 122.54L41.7641 64.088C41.725 63.6372 41.7807 63.1832 41.9277 62.7553C42.0746 62.3273 42.3096 61.9349 42.6175 61.6033C42.9254 61.2717 43.2993 61.0082 43.7152 60.8299C44.131 60.6516 44.5796 60.5624 45.0321 60.568H130.696C131.649 60.585 132.562 60.954 133.259 61.6039C133.956 62.2538 134.388 63.1386 134.472 64.088L138.68 122.54C138.72 122.991 138.665 123.446 138.518 123.874C138.371 124.302 138.136 124.695 137.828 125.027C137.52 125.359 137.146 125.623 136.73 125.802C136.314 125.98 135.865 126.07 135.412 126.064Z" fill="#6F4A8E"/>
<path opacity="0.5" d="M135.412 126.064H49.7481C48.7945 126.047 47.8811 125.677 47.1839 125.027C46.4866 124.376 46.055 123.49 45.9721 122.54L41.7641 64.088C41.725 63.6372 41.7807 63.1832 41.9277 62.7553C42.0746 62.3273 42.3096 61.9349 42.6175 61.6033C42.9254 61.2717 43.2993 61.0082 43.7152 60.8299C44.131 60.6516 44.5796 60.5624 45.0321 60.568H130.696C131.649 60.585 132.562 60.954 133.259 61.6039C133.956 62.2538 134.388 63.1386 134.472 64.088L138.68 122.54C138.72 122.991 138.665 123.446 138.518 123.874C138.371 124.302 138.136 124.695 137.828 125.027C137.52 125.359 137.146 125.623 136.73 125.802C136.314 125.98 135.865 126.07 135.412 126.064Z" fill="white"/>
<path d="M130.824 62.328H45.16H44.872C42.684 62.508 43.132 65.84 45.34 65.84H131.148C133.36 65.84 133.328 62.508 131.112 62.328H130.824Z" fill="#6F4A8E"/>
<path d="M47.392 64.0879C47.4004 64.191 47.3871 64.2948 47.3529 64.3924C47.3188 64.4901 47.2645 64.5795 47.1936 64.6549C47.1228 64.7303 47.0369 64.79 46.9415 64.8301C46.8462 64.8702 46.7434 64.8899 46.64 64.8879C46.4226 64.8849 46.214 64.8014 46.0545 64.6537C45.895 64.506 45.7957 64.3044 45.776 64.0879C45.7676 63.9851 45.7808 63.8817 45.8148 63.7844C45.8487 63.687 45.9026 63.5978 45.973 63.5224C46.0435 63.4471 46.1289 63.3873 46.2237 63.347C46.3186 63.3066 46.4209 63.2865 46.524 63.2879C46.7421 63.29 46.9517 63.373 47.112 63.5208C47.2724 63.6686 47.3722 63.8707 47.392 64.0879Z" fill="#FAFAFA"/>
<path d="M50.14 64.0879C50.1485 64.191 50.1351 64.2948 50.101 64.3924C50.0668 64.4901 50.0125 64.5795 49.9417 64.6549C49.8708 64.7303 49.7849 64.79 49.6896 64.8301C49.5942 64.8702 49.4915 64.8899 49.388 64.8879C49.1706 64.8849 48.9621 64.8014 48.8025 64.6537C48.643 64.506 48.5438 64.3044 48.524 64.0879C48.5157 63.9851 48.5289 63.8817 48.5628 63.7844C48.5967 63.687 48.6506 63.5978 48.7211 63.5224C48.7915 63.4471 48.8769 63.3873 48.9718 63.347C49.0667 63.3066 49.1689 63.2865 49.272 63.2879C49.4901 63.29 49.6997 63.373 49.8601 63.5208C50.0205 63.6686 50.1202 63.8707 50.14 64.0879Z" fill="#FAFAFA"/>
<path d="M52.8841 64.088C52.8925 64.1908 52.8793 64.2942 52.8453 64.3915C52.8114 64.4889 52.7575 64.5781 52.6871 64.6535C52.6166 64.7288 52.5312 64.7886 52.4364 64.8289C52.3415 64.8693 52.2392 64.8894 52.1361 64.888C51.9184 64.8858 51.7094 64.8027 51.5496 64.6548C51.3899 64.5069 51.291 64.3048 51.2721 64.088C51.2631 63.9851 51.2758 63.8814 51.3095 63.7838C51.3432 63.6861 51.3971 63.5966 51.4677 63.5212C51.5382 63.4457 51.6239 63.386 51.7191 63.3458C51.8142 63.3056 51.9168 63.2859 52.0201 63.288C52.2375 63.291 52.4461 63.3745 52.6056 63.5222C52.7651 63.6699 52.8643 63.8715 52.8841 64.088Z" fill="#FAFAFA"/>
<path d="M133.14 120.232H51.2C50.8539 120.226 50.5222 120.092 50.2694 119.856C50.0166 119.619 49.8607 119.297 49.832 118.952L46.372 70.884C46.3566 70.7191 46.3765 70.5527 46.4303 70.396C46.4841 70.2394 46.5706 70.0959 46.6841 69.9752C46.7976 69.8546 46.9354 69.7594 47.0885 69.6961C47.2416 69.6328 47.4064 69.6028 47.572 69.608H129.532C129.878 69.6128 130.209 69.7461 130.462 69.9819C130.715 70.2178 130.871 70.5394 130.9 70.884L134.364 118.952C134.379 119.119 134.358 119.287 134.303 119.446C134.247 119.604 134.159 119.749 134.043 119.87C133.927 119.991 133.786 120.086 133.631 120.149C133.475 120.211 133.308 120.24 133.14 120.232Z" fill="white"/>
<path d="M98.6121 101.92L97.2761 83.392L93.2361 80.96H82.1121L83.6241 101.92H98.6121Z" fill="white"/>
<path d="M98.6121 102.112H83.6241C83.5745 102.113 83.5263 102.095 83.4898 102.062C83.4533 102.028 83.4311 101.982 83.4281 101.932L81.9201 80.972C81.9181 80.9457 81.9218 80.9193 81.9307 80.8945C81.9397 80.8697 81.9538 80.8471 81.9721 80.828C81.9897 80.8083 82.0113 80.7924 82.0354 80.7814C82.0594 80.7704 82.0856 80.7645 82.1121 80.764H93.2361C93.2711 80.7653 93.3054 80.7749 93.3361 80.792L97.3761 83.224C97.4032 83.2396 97.4262 83.2616 97.4429 83.2881C97.4597 83.3146 97.4697 83.3448 97.472 83.376L98.8001 101.904C98.8028 101.931 98.7996 101.958 98.7906 101.984C98.7816 102.009 98.7671 102.033 98.7481 102.052C98.7306 102.071 98.7096 102.086 98.6862 102.096C98.6629 102.106 98.6376 102.112 98.6121 102.112ZM83.8121 101.712H98.4001L97.0881 83.492L93.2001 81.152H82.3201L83.8121 101.712Z" fill="#6F4A8E"/>
<path d="M97.2761 83.392L93.2361 80.96L94.7201 84.184L97.2761 83.392Z" fill="#EBEBEB"/>
<path d="M94.7201 84.3759C94.6832 84.3757 94.6471 84.3651 94.616 84.3453C94.5848 84.3255 94.5599 84.2973 94.5441 84.2639L93.0601 81.0399C93.0428 81.002 93.0377 80.9597 93.0456 80.9189C93.0535 80.878 93.0739 80.8406 93.1041 80.8119C93.1358 80.7848 93.1753 80.7682 93.2169 80.7647C93.2585 80.7611 93.3002 80.7706 93.3361 80.7919L97.3761 83.2239C97.4087 83.2435 97.435 83.2719 97.452 83.3059C97.469 83.3399 97.476 83.3781 97.4721 83.4159C97.4669 83.4527 97.4514 83.4873 97.4273 83.5157C97.4033 83.544 97.3716 83.5649 97.3361 83.5759L94.7761 84.3759H94.7201ZM93.6761 81.4479L94.8241 83.9479L96.8241 83.3359L93.6761 81.4479Z" fill="#6F4A8E"/>
<path d="M88.4 90.4C88.406 90.5087 88.3898 90.6175 88.3522 90.7197C88.3147 90.8219 88.2568 90.9153 88.1819 90.9943C88.107 91.0734 88.0167 91.1362 87.9167 91.1792C87.8166 91.2221 87.7089 91.2442 87.6 91.244C87.3717 91.2399 87.1529 91.1514 86.986 90.9955C86.8191 90.8397 86.7158 90.6275 86.696 90.4C86.6857 90.2902 86.6989 90.1794 86.7348 90.0751C86.7707 89.9707 86.8285 89.8753 86.9042 89.795C86.9799 89.7148 87.0718 89.6516 87.1739 89.6097C87.2759 89.5678 87.3858 89.5481 87.496 89.552C87.7247 89.5571 87.9435 89.6464 88.1104 89.8029C88.2772 89.9595 88.3804 90.1721 88.4 90.4Z" fill="#6F4A8E"/>
<path d="M93.88 90.4C93.8897 90.5095 93.876 90.6199 93.8398 90.7237C93.8037 90.8275 93.7458 90.9225 93.6702 91.0023C93.5946 91.0821 93.5028 91.1449 93.4011 91.1866C93.2993 91.2283 93.1899 91.2478 93.08 91.244C92.8512 91.24 92.632 91.1516 92.4644 90.9958C92.2968 90.8401 92.1926 90.6279 92.172 90.4C92.1654 90.291 92.1813 90.1818 92.2185 90.0791C92.2558 89.9764 92.3137 89.8825 92.3886 89.803C92.4636 89.7236 92.554 89.6603 92.6543 89.6171C92.7546 89.574 92.8628 89.5518 92.972 89.552C93.2016 89.5552 93.4219 89.6438 93.5898 89.8006C93.7576 89.9574 93.8611 90.1711 93.88 90.4Z" fill="#6F4A8E"/>
<path d="M95.432 95.896C95.3834 95.8951 95.3368 95.8763 95.3013 95.843C95.2658 95.8097 95.244 95.7644 95.24 95.716C95.14 94.352 93.004 93.244 90.48 93.244C88.804 93.244 87.3 93.744 86.556 94.544C86.4032 94.6914 86.2835 94.8696 86.2049 95.0669C86.1262 95.2641 86.0905 95.4758 86.1 95.688C86.1019 95.7142 86.0985 95.7406 86.0902 95.7656C86.0818 95.7905 86.0686 95.8136 86.0514 95.8335C86.0165 95.8736 85.9671 95.8983 85.914 95.902C85.861 95.9057 85.8086 95.8882 85.7685 95.8533C85.7284 95.8184 85.7038 95.769 85.7 95.716C85.6881 95.4508 85.7318 95.1861 85.8282 94.9388C85.9247 94.6915 86.0718 94.4671 86.26 94.28C87.06 93.404 88.688 92.856 90.468 92.856C93.24 92.856 95.5 94.1 95.612 95.688C95.6137 95.7132 95.6103 95.7385 95.6021 95.7624C95.5939 95.7863 95.5811 95.8084 95.5644 95.8273C95.5477 95.8463 95.5274 95.8618 95.5047 95.8729C95.4819 95.8839 95.4573 95.8904 95.432 95.892V95.896Z" fill="#6F4A8E"/>
<path d="M85.268 88.688C85.2192 88.687 85.1724 88.6686 85.136 88.636C85.0996 88.5993 85.0792 88.5497 85.0792 88.498C85.0792 88.4463 85.0996 88.3967 85.136 88.36L85.988 87.444C86.0246 87.4088 86.0733 87.3892 86.124 87.3892C86.1748 87.3892 86.2235 87.4088 86.26 87.444C86.2779 87.4619 86.2921 87.4831 86.3018 87.5064C86.3115 87.5297 86.3165 87.5548 86.3165 87.58C86.3165 87.6053 86.3115 87.6303 86.3018 87.6537C86.2921 87.677 86.2779 87.6982 86.26 87.716L85.408 88.632C85.3897 88.6503 85.3678 88.6647 85.3438 88.6743C85.3197 88.684 85.2939 88.6886 85.268 88.688Z" fill="#6F4A8E"/>
<path d="M95.0321 88.688C94.9835 88.6857 94.9371 88.6675 94.9001 88.636L93.9201 87.72C93.9016 87.7021 93.8869 87.6807 93.8768 87.657C93.8667 87.6333 93.8616 87.6078 93.8616 87.582C93.8616 87.5563 93.8667 87.5308 93.8768 87.5071C93.8869 87.4834 93.9016 87.4619 93.9201 87.444C93.9566 87.4088 94.0054 87.3892 94.0561 87.3892C94.1068 87.3892 94.1555 87.4088 94.1921 87.444L95.1721 88.36C95.19 88.3779 95.2042 88.3991 95.2139 88.4224C95.2236 88.4457 95.2285 88.4708 95.2285 88.496C95.2285 88.5213 95.2236 88.5463 95.2139 88.5697C95.2042 88.593 95.19 88.6142 95.1721 88.632C95.1341 88.6675 95.0841 88.6875 95.0321 88.688Z" fill="#6F4A8E"/>
<path d="M80.9041 106.06H81.8081L83.1121 107.796L82.9881 106.06H83.9001L84.1241 109.196H83.2001L81.9041 107.472L82.0281 109.196H81.1161L80.9041 106.06Z" fill="#6F4A8E"/>
<path d="M84.5321 107.628C84.5012 107.415 84.5159 107.198 84.5752 106.991C84.6345 106.784 84.7371 106.592 84.8761 106.428C85.0281 106.278 85.2101 106.163 85.4101 106.089C85.6101 106.015 85.8234 105.985 86.0361 106C86.4868 105.975 86.9296 106.126 87.2721 106.42C87.5858 106.732 87.7677 107.153 87.7801 107.596C87.8131 107.901 87.7719 108.21 87.6601 108.496C87.5565 108.726 87.383 108.918 87.1641 109.044C86.9015 109.185 86.6058 109.252 86.3081 109.24C86.0021 109.25 85.6976 109.192 85.4161 109.072C85.1695 108.954 84.9614 108.768 84.8161 108.536C84.6445 108.263 84.5466 107.95 84.5321 107.628ZM85.5041 107.628C85.5002 107.873 85.5791 108.113 85.7281 108.308C85.7905 108.377 85.8673 108.431 85.953 108.467C86.0387 108.503 86.1312 108.52 86.2241 108.516C86.3128 108.522 86.4016 108.507 86.4831 108.471C86.5646 108.436 86.6363 108.381 86.6921 108.312C86.807 108.093 86.845 107.843 86.8001 107.6C86.8018 107.365 86.7227 107.136 86.5761 106.952C86.512 106.884 86.4343 106.831 86.3481 106.796C86.2618 106.761 86.1691 106.744 86.0761 106.748C85.9891 106.744 85.9024 106.761 85.8231 106.797C85.7439 106.833 85.6743 106.888 85.6201 106.956C85.503 107.162 85.4619 107.403 85.5041 107.636V107.628Z" fill="#6F4A8E"/>
<path d="M89.66 106.06H91.1C91.3374 106.052 91.5739 106.092 91.796 106.176C91.9718 106.25 92.128 106.363 92.252 106.508C92.378 106.655 92.4744 106.825 92.536 107.008C92.6009 107.205 92.6412 107.409 92.656 107.616C92.6867 107.877 92.6664 108.142 92.596 108.396C92.5409 108.572 92.4434 108.731 92.312 108.86C92.2025 108.976 92.0646 109.061 91.912 109.108C91.726 109.162 91.5337 109.192 91.34 109.196H89.904L89.66 106.06ZM90.68 106.772L90.804 108.484H91.04C91.186 108.494 91.3322 108.47 91.468 108.416C91.5576 108.364 91.6235 108.279 91.652 108.18C91.6978 108.002 91.7087 107.818 91.684 107.636C91.6917 107.392 91.617 107.152 91.472 106.956C91.3978 106.889 91.3103 106.838 91.2153 106.806C91.1203 106.774 91.0198 106.763 90.92 106.772H90.68Z" fill="#6F4A8E"/>
<path d="M94.98 108.676H93.88L93.764 109.196H92.776L93.728 106.06H94.8L96.204 109.196H95.188L94.98 108.676ZM94.728 108L94.304 106.872L94.04 108H94.728Z" fill="#6F4A8E"/>
<path d="M95.748 106.06H98.6921L98.7481 106.836H97.7601L97.9281 109.196H96.96L96.792 106.836H95.804L95.748 106.06Z" fill="#6F4A8E"/>
<path d="M100.948 108.676H99.8481L99.7321 109.196H98.7441L99.6961 106.06H100.752L102.152 109.196H101.14L100.948 108.676ZM100.696 108L100.268 106.872L100 108H100.696Z" fill="#6F4A8E"/>
<path d="M141.476 69.232C141.832 69.052 142.276 68.832 142.652 68.604C143.028 68.376 143.452 68.156 143.852 67.916C144.632 67.432 145.424 66.956 146.172 66.428C147.674 65.4001 149.082 64.2409 150.38 62.964C150.544 62.812 150.688 62.644 150.844 62.48L151.072 62.236L151.184 62.116L151.24 62.052C151.184 62.16 151.24 62.128 151.24 62.024C151.275 61.8812 151.295 61.735 151.3 61.588C151.291 60.7375 151.193 59.8902 151.008 59.06C150.652 57.268 150.112 55.42 149.58 53.612L151.132 52.932C152.111 54.6667 152.93 56.4876 153.576 58.372C153.939 59.3903 154.17 60.451 154.264 61.528C154.288 61.8629 154.278 62.1994 154.232 62.532C154.173 63.0024 154.006 63.4527 153.744 63.848L153.676 63.94L153.624 64.004L153.564 64.08L153.44 64.232L153.192 64.532C153.028 64.728 152.868 64.932 152.692 65.12C151.324 66.638 149.798 68.0057 148.14 69.2C147.34 69.792 146.492 70.36 145.624 70.876C145.196 71.136 144.76 71.384 144.316 71.628C143.872 71.872 143.44 72.096 142.928 72.336L141.476 69.232Z" fill="#FFB573"/>
<path d="M137.916 163.272C138.215 163.264 138.513 163.224 138.804 163.152C138.819 163.147 138.832 163.139 138.842 163.128C138.853 163.117 138.86 163.103 138.864 163.088C138.866 163.073 138.864 163.057 138.857 163.043C138.851 163.029 138.841 163.017 138.828 163.008C138.712 162.932 137.696 162.276 137.304 162.452C137.261 162.472 137.223 162.504 137.196 162.543C137.168 162.582 137.152 162.628 137.148 162.676C137.132 162.751 137.136 162.83 137.159 162.903C137.182 162.977 137.224 163.043 137.28 163.096C137.464 163.23 137.69 163.292 137.916 163.272ZM138.576 163.04C137.996 163.156 137.556 163.136 137.376 162.98C137.34 162.943 137.314 162.898 137.3 162.848C137.286 162.799 137.284 162.746 137.296 162.696C137.297 162.675 137.304 162.654 137.316 162.637C137.328 162.619 137.345 162.605 137.364 162.596C137.576 162.504 138.164 162.8 138.576 163.04Z" fill="#6F4A8E"/>
<path d="M138.8 163.152H138.84C138.852 163.145 138.861 163.135 138.868 163.123C138.875 163.111 138.879 163.098 138.88 163.084C138.88 163.04 138.88 162.076 138.512 161.756C138.468 161.714 138.415 161.682 138.356 161.663C138.298 161.644 138.236 161.639 138.176 161.648C138.113 161.649 138.052 161.671 138.003 161.711C137.954 161.751 137.921 161.806 137.908 161.868C137.832 162.268 138.44 162.968 138.76 163.152C138.773 163.156 138.787 163.156 138.8 163.152ZM138.228 161.796C138.293 161.796 138.356 161.82 138.404 161.864C138.615 162.175 138.724 162.544 138.716 162.92C138.396 162.664 138.016 162.12 138.064 161.892C138.064 161.856 138.092 161.808 138.192 161.796H138.228Z" fill="#6F4A8E"/>
<path d="M138.488 59.228C138.088 61.228 137.288 65.228 138.668 66.568C138.668 66.568 138.124 68.568 134.432 68.568C130.368 68.568 132.492 66.568 132.492 66.568C134.708 66.04 134.648 64.396 134.264 62.848L138.488 59.228Z" fill="#FFB573"/>
<path d="M131.712 67.368C131.076 67.456 131.62 65.804 131.876 65.632C132.476 65.232 140.22 64.676 140.168 65.632C140.136 66.032 139.944 66.832 139.608 67.096C139.272 67.36 137.28 66.536 131.712 67.368Z" fill="#263238"/>
<path d="M132.976 66.8C132.468 66.972 132.516 65.308 132.688 65.108C133.088 64.644 139.356 63.036 139.54 63.944C139.612 64.344 139.648 65.144 139.432 65.428C139.216 65.712 137.376 65.244 132.976 66.8Z" fill="#263238"/>
<path d="M130.644 55.644C130.619 55.6451 130.594 55.6402 130.571 55.6298C130.548 55.6194 130.528 55.6037 130.512 55.584C130.39 55.4266 130.233 55.3001 130.053 55.2146C129.873 55.1291 129.675 55.0871 129.476 55.092C129.455 55.0948 129.434 55.0933 129.414 55.0877C129.394 55.0821 129.375 55.0725 129.358 55.0594C129.342 55.0464 129.328 55.0301 129.318 55.0117C129.308 54.9932 129.302 54.9729 129.3 54.952C129.297 54.9108 129.309 54.8699 129.335 54.8378C129.361 54.8057 129.399 54.785 129.44 54.78C129.692 54.7671 129.943 54.8154 130.172 54.9205C130.401 55.0257 130.602 55.1847 130.756 55.384C130.783 55.4165 130.796 55.4582 130.792 55.5001C130.788 55.542 130.768 55.5808 130.736 55.608C130.709 55.6275 130.677 55.6399 130.644 55.644Z" fill="#263238"/>
<path d="M129.868 57.6C129.687 58.2381 129.417 58.8479 129.068 59.412C129.215 59.4963 129.378 59.5475 129.547 59.562C129.715 59.5766 129.885 59.554 130.044 59.496L129.868 57.6Z" fill="#FF5652"/>
<path d="M130.064 57.1161C130.092 57.3841 129.968 57.6161 129.792 57.6321C129.616 57.6481 129.452 57.4481 129.428 57.1761C129.404 56.9041 129.524 56.6761 129.696 56.6601C129.868 56.6441 130.036 56.8441 130.064 57.1161Z" fill="#263238"/>
<path d="M129.776 56.6679L129.112 56.5439C129.112 56.5439 129.492 57.016 129.776 56.6679Z" fill="#263238"/>
<path d="M142.68 163.076H139.328L139.592 155.316H142.944L142.68 163.076Z" fill="#FFB573"/>
<path d="M139.064 162.688H142.828C142.893 162.686 142.956 162.709 143.005 162.751C143.055 162.793 143.087 162.852 143.096 162.916L143.524 165.892C143.532 165.967 143.525 166.043 143.502 166.116C143.479 166.188 143.441 166.254 143.39 166.31C143.339 166.367 143.277 166.412 143.208 166.442C143.139 166.473 143.064 166.488 142.988 166.488C141.676 166.468 141.044 166.388 139.388 166.388C138.368 166.388 136.88 166.496 135.476 166.496C134.072 166.496 133.992 165.104 134.58 164.98C137.204 164.412 137.62 163.636 138.504 162.892C138.661 162.761 138.859 162.689 139.064 162.688Z" fill="#263238"/>
<g opacity="0.2">
<path opacity="0.2" d="M142.944 155.316H139.592L139.456 159.316H142.808L142.944 155.316Z" fill="black"/>
</g>
<path d="M129.348 71.2C127.297 70.4025 125.288 69.5013 123.328 68.5C121.304 67.511 119.376 66.3366 117.568 64.992C117.085 64.6137 116.628 64.2034 116.2 63.764C116.088 63.644 115.976 63.532 115.868 63.392C115.741 63.2489 115.624 63.0979 115.516 62.94C115.221 62.5102 115.037 62.0142 114.98 61.496C114.936 61.0047 115.003 60.5099 115.176 60.048C115.315 59.6768 115.504 59.3267 115.74 59.008C116.126 58.4796 116.582 58.006 117.096 57.6C118.002 56.8783 118.981 56.2523 120.016 55.732C120.512 55.468 121.016 55.232 121.528 55.012C122.04 54.792 122.544 54.584 123.092 54.396L123.8 55.936C122.056 57.036 120.248 58.248 118.92 59.6C118.623 59.9011 118.361 60.2353 118.14 60.596C117.948 60.912 117.952 61.148 117.984 61.128C118.016 61.108 117.984 61.128 118.04 61.168L118.2 61.34C118.26 61.412 118.344 61.484 118.42 61.56C118.759 61.8718 119.118 62.1605 119.496 62.424C120.322 63.0086 121.182 63.5429 122.072 64.024C122.972 64.528 123.9 65.004 124.844 65.46C126.732 66.364 128.684 67.232 130.6 68.024L129.348 71.2Z" fill="#FFB573"/>
<path d="M124.8 54.8599L125.352 53.6599L122.824 52.7999C122.824 52.7999 122.024 55.1639 122.972 56.2519C123.368 56.1896 123.743 56.0297 124.062 55.7867C124.381 55.5437 124.634 55.2253 124.8 54.8599Z" fill="#FFB573"/>
<path d="M125.34 51.064L123.328 50.48L122.824 52.784L125.34 53.66V51.064Z" fill="#FFB573"/>
<path d="M151.34 53.776L151.632 50.976L149.04 51.6C149.04 51.6 149 54.232 150.372 54.648L151.34 53.776Z" fill="#FFB573"/>
<path d="M150.384 49.004L148.692 49.792L149.04 51.58L151.632 50.968L150.384 49.004Z" fill="#FFB573"/>
<path d="M139.016 55.3C139.14 58.624 139.26 60.028 137.76 61.888C135.5 64.688 131.392 64.108 130.28 60.888C129.28 57.992 129.248 53.044 132.352 51.412C133.034 51.0492 133.798 50.8667 134.571 50.882C135.344 50.8972 136.1 51.1097 136.767 51.4992C137.435 51.8887 137.992 52.4423 138.385 53.1075C138.779 53.7727 138.996 54.5274 139.016 55.3Z" fill="#FFB573"/>
<path d="M137.568 61.8839C140.832 60.4719 142.976 57.4839 142.072 52.8519C141.204 48.4079 138.204 47.9679 136.964 48.8879C135.724 49.8079 132.632 48.4359 130.776 49.9959C127.576 52.7039 130.6 55.5959 132.184 57.3439C133.128 59.2879 134.368 63.2639 137.568 61.8839Z" fill="#263238"/>
<path d="M136.212 52.056C136.61 52.5668 137.149 52.9498 137.763 53.1577C138.376 53.3657 139.037 53.3895 139.663 53.2262C140.29 53.0629 140.855 52.7196 141.289 52.2388C141.723 51.758 142.007 51.1606 142.105 50.5205C142.203 49.8804 142.112 49.2254 141.842 48.6366C141.573 48.0478 141.136 47.5508 140.587 47.207C140.039 46.8633 139.401 46.6877 138.754 46.7021C138.106 46.7165 137.477 46.9202 136.944 47.288C136.215 47.8234 135.728 48.6264 135.591 49.5204C135.454 50.4145 135.677 51.3265 136.212 52.056Z" fill="#6F4A8E"/>
<path d="M137.06 49.2C136.592 46.52 139.124 44.456 142.516 45.452C145.908 46.448 144.116 49.452 143.416 51.852C142.716 54.252 144.548 56.54 145.308 54.712C146.068 52.884 144.788 52.312 144.788 52.312C144.788 52.312 148.388 53.244 145.044 57.304C141.7 61.364 138.672 56.88 139.492 54.236C140.156 52.112 137.504 51.732 137.06 49.2Z" fill="#263238"/>
<path d="M133.672 50.212C132.124 49.412 129.504 48.752 128.012 51.264C127.308 52.464 127.58 54.064 127.58 54.064L132.136 54.364L133.672 50.212Z" fill="#263238"/>
<path d="M127.044 53.272C127.017 53.2699 126.992 53.2575 126.974 53.2374C126.956 53.2172 126.947 53.1909 126.948 53.164C126.948 53.096 127.064 51.488 128.036 50.48C130.384 48.04 133.136 50.08 133.92 50.74C133.937 50.7578 133.947 50.7813 133.947 50.8058C133.948 50.8304 133.94 50.8543 133.924 50.8731C133.908 50.8919 133.886 50.9042 133.861 50.9077C133.837 50.9112 133.812 50.9056 133.792 50.892C133.036 50.244 130.404 48.304 128.192 50.616C127.272 51.572 127.16 53.16 127.16 53.176C127.16 53.1902 127.156 53.2042 127.15 53.2171C127.144 53.2299 127.135 53.2412 127.124 53.2503C127.113 53.2594 127.1 53.266 127.086 53.2698C127.072 53.2735 127.058 53.2743 127.044 53.272Z" fill="#263238"/>
<path d="M132.74 57.2C132.722 57.8293 132.489 58.4335 132.08 58.912C131.528 59.56 130.88 59.24 130.748 58.512C130.616 57.868 130.748 56.752 131.444 56.364C132.14 55.976 132.748 56.472 132.74 57.2Z" fill="#FFB573"/>
<path d="M132.02 87.6479C132.02 87.6479 132.236 110.908 134.252 123.868C135.884 134.336 138.896 158.544 138.896 158.544H143.468C143.468 158.544 143.912 135.172 143.068 124.82C140.976 98.6199 146.38 93.7199 142.02 87.6479H132.02Z" fill="#263238"/>
<path opacity="0.1" d="M132.02 87.6479C132.02 87.6479 132.236 110.908 134.252 123.868C135.884 134.336 138.896 158.544 138.896 158.544H143.468C143.468 158.544 143.912 135.172 143.068 124.82C140.976 98.6199 146.38 93.7199 142.02 87.6479H132.02Z" fill="white"/>
<path opacity="0.3" d="M134.424 98.2C136.024 105.22 134.748 116.276 133.872 121.144C132.944 113.752 132.476 104.172 132.244 97.144C133.072 95.808 133.856 95.72 134.424 98.2Z" fill="black"/>
<path d="M138.272 158.632H144.092L144.396 156.592L138.24 156.384L138.272 158.632Z" fill="#6F4A8E"/>
<path d="M139.932 68.0001C140.48 66.9121 143.424 66.2281 145.032 66.2321L146.232 71.5761C146.232 71.5761 143.032 76.3321 141.696 75.8281C140.124 75.2481 138.76 70.3481 139.932 68.0001Z" fill="#6F4A8E"/>
<path opacity="0.4" d="M139.932 68.0001C140.48 66.9121 143.424 66.2281 145.032 66.2321L146.232 71.5761C146.232 71.5761 143.032 76.3321 141.696 75.8281C140.124 75.2481 138.76 70.3481 139.932 68.0001Z" fill="black"/>
<path d="M136.54 157.324C136.547 157.312 136.55 157.299 136.55 157.286C136.55 157.273 136.547 157.26 136.54 157.248C136.533 157.233 136.52 157.22 136.505 157.212C136.49 157.204 136.473 157.201 136.456 157.204C136.288 157.232 134.808 157.464 134.608 157.888C134.587 157.927 134.575 157.97 134.575 158.014C134.575 158.058 134.587 158.102 134.608 158.14C134.642 158.203 134.692 158.257 134.752 158.297C134.812 158.337 134.88 158.361 134.952 158.368C135.436 158.416 136.152 157.744 136.512 157.336L136.54 157.324ZM134.764 157.94C134.9 157.716 135.668 157.508 136.252 157.4C135.724 157.936 135.26 158.236 134.988 158.2C134.941 158.195 134.896 158.179 134.857 158.152C134.818 158.126 134.786 158.09 134.764 158.048C134.755 158.033 134.751 158.016 134.751 157.998C134.751 157.981 134.755 157.963 134.764 157.948C134.764 157.948 134.76 157.944 134.764 157.94Z" fill="#6F4A8E"/>
<path d="M140.032 155.904L136.968 157.268L135.604 154.424L133.82 150.704L133.608 150.272L136.672 148.908L136.908 149.396L138.636 153L140.032 155.904Z" fill="#FFB573"/>
<path opacity="0.2" d="M138.636 153L135.604 154.424L133.82 150.704L136.908 149.396L138.636 153Z" fill="black"/>
<path d="M128.428 87.6479C128.428 87.6479 118.64 112 121.292 123.44C123.692 133.796 134.292 153.408 134.292 153.408L138.4 151.352C138.4 151.352 131.844 127.676 131.136 122.532C129.752 112.532 138.644 98.3999 138.644 87.6479H128.428Z" fill="#263238"/>
<path opacity="0.1" d="M128.428 87.6479C128.428 87.6479 118.64 112 121.292 123.44C123.692 133.796 134.292 153.408 134.292 153.408L138.4 151.352C138.4 151.352 131.844 127.676 131.136 122.532C129.752 112.532 138.644 98.3999 138.644 87.6479H128.428Z" fill="white"/>
<path d="M136.424 156.84L139.464 154.628C139.515 154.588 139.58 154.568 139.645 154.573C139.71 154.577 139.771 154.605 139.816 154.652L141.916 156.808C141.967 156.864 142.005 156.931 142.029 157.003C142.053 157.075 142.061 157.151 142.053 157.227C142.045 157.302 142.021 157.375 141.983 157.441C141.945 157.507 141.893 157.563 141.832 157.608C140.756 158.36 140.2 158.672 138.864 159.644C138.04 160.244 136.4 161.568 135.264 162.396C134.128 163.224 133.264 162.144 133.664 161.7C135.456 159.7 135.832 158.46 136.112 157.336C136.155 157.139 136.266 156.964 136.424 156.84Z" fill="#263238"/>
<path d="M134.028 154.276L139.32 151.856L138.644 149.7L132.976 152.284L134.028 154.276Z" fill="#6F4A8E"/>
<path d="M131.024 67.744C130.588 66.608 126.764 65.344 124.844 64.944L124 71.232C124 71.232 127.136 75.736 128.508 75.364C130.132 74.924 131.968 70.18 131.024 67.744Z" fill="#6F4A8E"/>
<path opacity="0.4" d="M131.024 67.744C130.588 66.608 126.764 65.344 124.844 64.944L124 71.232C124 71.232 127.136 75.736 128.508 75.364C130.132 74.924 131.968 70.18 131.024 67.744Z" fill="black"/>
<path d="M126.828 67.428C126.828 67.428 125.228 67.988 128.428 87.648H142.028C141.8 82.112 141.792 78.696 144.428 67.328C142.522 66.9348 140.591 66.6808 138.648 66.568C136.592 66.4199 134.528 66.4199 132.472 66.568C129.836 66.8 126.828 67.428 126.828 67.428Z" fill="#6F4A8E"/>
<path opacity="0.4" d="M126.828 67.428C126.828 67.428 125.228 67.988 128.428 87.648H142.028C141.8 82.112 141.792 78.696 144.428 67.328C142.522 66.9348 140.591 66.6808 138.648 66.568C136.592 66.4199 134.528 66.4199 132.472 66.568C129.836 66.8 126.828 67.428 126.828 67.428Z" fill="black"/>
<path d="M142.24 86.852L142.852 88.052C142.9 88.148 142.788 88.244 142.632 88.244H128.36C128.236 88.244 128.136 88.184 128.128 88.104L128.004 86.904C128.004 86.82 128.104 86.748 128.236 86.748H142C142.046 86.7408 142.093 86.7467 142.135 86.7651C142.178 86.7835 142.214 86.8137 142.24 86.852Z" fill="#6F4A8E"/>
<path opacity="0.3" d="M142.24 86.852L142.852 88.052C142.9 88.148 142.788 88.244 142.632 88.244H128.36C128.236 88.244 128.136 88.184 128.128 88.104L128.004 86.904C128.004 86.82 128.104 86.748 128.236 86.748H142C142.046 86.7408 142.093 86.7467 142.135 86.7651C142.178 86.7835 142.214 86.8137 142.24 86.852Z" fill="white"/>
<path d="M140.4 88.4H140.768C140.844 88.4 140.9 88.36 140.892 88.316L140.72 86.716C140.72 86.668 140.652 86.632 140.58 86.632H140.208C140.136 86.632 140.08 86.668 140.084 86.716L140.256 88.316C140.252 88.352 140.316 88.4 140.4 88.4Z" fill="#263238"/>
<path d="M131.444 88.4H131.812C131.884 88.4 131.94 88.36 131.936 88.316L131.764 86.716C131.764 86.668 131.696 86.632 131.62 86.632H131.252C131.176 86.632 131.124 86.668 131.128 86.716L131.3 88.316C131.304 88.352 131.368 88.4 131.444 88.4Z" fill="#263238"/>
</svg>
