<svg width="200" height="200" viewBox="0 0 200 200" fill="none" xmlns="http://www.w3.org/2000/svg">
<path d="M101.532 184.976C151.819 184.976 192.584 159.893 192.584 128.952C192.584 98.0108 151.819 72.928 101.532 72.928C51.2454 72.928 10.48 98.0108 10.48 128.952C10.48 159.893 51.2454 184.976 101.532 184.976Z" fill="#6F4A8E"/>
<path opacity="0.6" d="M101.532 184.976C151.819 184.976 192.584 159.893 192.584 128.952C192.584 98.0108 151.819 72.928 101.532 72.928C51.2454 72.928 10.48 98.0108 10.48 128.952C10.48 159.893 51.2454 184.976 101.532 184.976Z" fill="white"/>
<g opacity="0.1">
<path opacity="0.1" d="M83.832 143.12L129.112 116.976C130.068 116.424 130.068 115.528 129.112 114.976L64.604 77.732C54.644 80.452 45.312 84.316 37.148 89.332C28.656 94.556 22.196 100.56 17.76 106.964L80.368 143.12C80.9047 143.392 81.4981 143.534 82.1 143.534C82.7019 143.534 83.2953 143.392 83.832 143.12Z" fill="black"/>
<path opacity="0.1" d="M76.228 138.128C78.372 139.364 78.372 141.368 76.228 142.608C74.084 143.848 70.628 143.844 68.472 142.608C66.316 141.372 66.328 139.364 68.472 138.128C70.616 136.892 74.084 136.892 76.228 138.128Z" fill="black"/>
<path opacity="0.1" d="M103.004 133.388C107.716 133.388 111.536 131.182 111.536 128.46C111.536 125.738 107.716 123.532 103.004 123.532C98.292 123.532 94.472 125.738 94.472 128.46C94.472 131.182 98.292 133.388 103.004 133.388Z" fill="black"/>
<path opacity="0.1" d="M114.14 127.392C118.852 127.392 122.672 125.186 122.672 122.464C122.672 119.742 118.852 117.536 114.14 117.536C109.428 117.536 105.608 119.742 105.608 122.464C105.608 125.186 109.428 127.392 114.14 127.392Z" fill="black"/>
<path opacity="0.1" d="M58.356 127.808C60.496 129.044 60.496 131.052 58.356 132.288C56.216 133.524 52.756 133.524 50.596 132.288C48.436 131.052 48.456 129.044 50.596 127.808C52.736 126.572 56.212 126.572 58.356 127.808Z" fill="black"/>
<path opacity="0.1" d="M126.596 109.048C128.74 110.284 128.74 112.288 126.596 113.524C124.452 114.76 120.996 114.764 118.84 113.524C116.684 112.284 116.7 110.284 118.84 109.048C120.98 107.812 124.456 107.812 126.596 109.048Z" fill="black"/>
<path opacity="0.1" d="M108.724 98.728C110.868 99.964 110.868 101.972 108.724 103.208C106.58 104.444 103.124 104.444 100.968 103.208C98.812 101.972 98.824 99.964 100.968 98.728C103.112 97.492 106.584 97.492 108.724 98.728Z" fill="black"/>
</g>
<path opacity="0.2" d="M71.844 117.06C76.7527 117.06 80.732 114.762 80.732 111.928C80.732 109.094 76.7527 106.796 71.844 106.796C66.9353 106.796 62.9561 109.094 62.9561 111.928C62.9561 114.762 66.9353 117.06 71.844 117.06Z" fill="black"/>
<path opacity="0.3" d="M98.62 127.2C98.62 127.2 98.556 128.232 100.128 128.984C101.7 129.736 104.284 129.492 104.284 129.492C102.898 129.821 101.448 129.763 100.092 129.324C98.064 128.58 98.62 127.2 98.62 127.2Z" fill="black"/>
<path opacity="0.3" d="M98.552 125.2C98.552 125.2 96.872 126.568 97.82 128.448C97.5291 128.215 97.3207 127.895 97.2256 127.535C97.1305 127.175 97.1538 126.794 97.292 126.448C97.3841 126.153 97.5471 125.885 97.7667 125.667C97.9864 125.45 98.256 125.289 98.552 125.2Z" fill="black"/>
<path opacity="0.3" d="M107.424 125.952C107.603 126.494 107.563 127.085 107.312 127.598C107.061 128.111 106.618 128.505 106.08 128.696C106.435 128.682 106.781 128.577 107.084 128.392C107.387 128.206 107.638 127.946 107.812 127.636C108.192 126.836 107.424 125.952 107.424 125.952Z" fill="black"/>
<path opacity="0.3" d="M110.22 120.972C110.22 120.972 110.152 122.004 111.724 122.756C113.296 123.508 115.88 123.264 115.88 123.264C114.494 123.593 113.044 123.535 111.688 123.096C109.66 122.348 110.22 120.972 110.22 120.972Z" fill="black"/>
<path opacity="0.3" d="M110.148 118.98C110.148 118.98 108.468 120.348 109.416 122.224C109.124 121.992 108.915 121.672 108.82 121.312C108.725 120.951 108.748 120.57 108.888 120.224C108.981 119.93 109.144 119.662 109.363 119.445C109.583 119.229 109.852 119.069 110.148 118.98Z" fill="black"/>
<path opacity="0.3" d="M119.02 119.72C119.201 120.262 119.161 120.853 118.911 121.366C118.66 121.879 118.218 122.273 117.68 122.464C118.035 122.449 118.38 122.344 118.683 122.158C118.985 121.971 119.235 121.71 119.408 121.4C119.788 120.604 119.02 119.72 119.02 119.72Z" fill="black"/>
<path opacity="0.15" d="M160.688 134.512C160.688 134.512 160.628 135.424 162.016 136.088C163.404 136.752 165.688 136.536 165.688 136.536C165.688 136.536 163.6 137.276 161.812 136.616C160.024 135.956 160.688 134.512 160.688 134.512Z" fill="black"/>
<path opacity="0.15" d="M160.02 132.4C160.02 132.4 158.536 133.6 159.372 135.264C159.372 135.264 158.256 134.536 158.676 133.42C158.787 133.144 158.97 132.904 159.207 132.724C159.444 132.544 159.725 132.432 160.02 132.4Z" fill="black"/>
<path opacity="0.15" d="M168.464 133.404C168.464 133.404 169.116 135.248 167.068 136.012C167.068 136.012 168.46 135.872 168.896 134.96C169.236 134.256 168.464 133.404 168.464 133.404Z" fill="black"/>
<path opacity="0.15" d="M159.672 129.808C159.672 129.808 165.332 128.388 168.984 130.756C172.636 133.124 171.268 135.556 171.268 135.556C171.268 135.556 173.528 132.32 169.536 130.152C164.148 127.236 159.672 129.808 159.672 129.808Z" fill="black"/>
<path opacity="0.15" d="M156.596 134.108C156.596 134.108 155.484 137.032 160.088 138.508C164.28 139.836 168.704 138.264 168.704 138.264C168.704 138.264 165.688 140.976 160.02 139.2C154.8 137.552 156.596 134.108 156.596 134.108Z" fill="black"/>
<path d="M42.26 21.816L38.864 23.776C38.8812 23.6259 38.8905 23.4751 38.892 23.324V22.344C38.892 20.592 37.664 19.884 36.148 20.744C35.4947 21.1425 34.9363 21.6791 34.512 22.316C34.264 20.116 32.54 19.296 30.44 20.504C28.176 21.816 26.336 24.996 26.336 27.616V29.088C26.3195 29.6778 26.4386 30.2635 26.684 30.8L23.884 32.428C23.4411 32.7168 23.0726 33.106 22.8085 33.5641C22.5444 34.0221 22.3921 34.536 22.364 35.064C22.364 36.032 23.044 36.428 23.884 35.94L42.284 25.324C42.7268 25.0341 43.0951 24.6441 43.3591 24.1854C43.6232 23.7268 43.7756 23.2125 43.804 22.684C43.78 21.724 43.1 21.328 42.26 21.816Z" fill="#EBEBEB"/>
<path d="M56.8001 31.704L54.2401 33.184C54.2526 33.0711 54.2593 32.9576 54.2601 32.844V32.104C54.2601 30.784 53.3321 30.248 52.1881 30.904C51.6952 31.21 51.2749 31.6194 50.9561 32.104C50.7681 30.44 49.4641 29.824 47.8841 30.736C46.9818 31.3242 46.2309 32.1168 45.6923 33.0494C45.1537 33.9821 44.8425 35.0286 44.7841 36.104V37.2C44.7733 37.6438 44.8636 38.0843 45.0481 38.488L42.9201 39.716C42.5837 39.9347 42.304 40.23 42.1038 40.5776C41.9035 40.9253 41.7885 41.3154 41.7681 41.716C41.7681 42.452 42.2841 42.748 42.9201 42.38L56.8001 34.38C57.1356 34.1609 57.4146 33.8654 57.6141 33.5178C57.8136 33.1702 57.9281 32.7803 57.9481 32.38C57.9321 31.636 57.4201 31.34 56.8001 31.704Z" fill="#EBEBEB"/>
<path d="M19.744 74C19.692 74.036 20.024 74.536 20.432 75.52C21.2818 77.4578 21.963 79.4652 22.468 81.52C23.7022 86.8445 23.9503 92.3501 23.2 97.764C23.2981 97.826 23.4085 97.8659 23.5235 97.881C23.6386 97.8961 23.7555 97.8859 23.8662 97.8513C23.977 97.8167 24.0789 97.7584 24.1648 97.6804C24.2508 97.6025 24.3187 97.5068 24.364 97.4C24.596 93.34 24.696 87.484 22.9 81.376C22.3411 79.3503 21.5771 77.3868 20.62 75.516C20.3664 74.9895 20.0735 74.4827 19.744 74Z" fill="#6F4A8E"/>
<path opacity="0.3" d="M19.744 74C19.692 74.036 20.024 74.536 20.432 75.52C21.2818 77.4578 21.963 79.4652 22.468 81.52C23.7022 86.8445 23.9503 92.3501 23.2 97.764C23.2981 97.826 23.4085 97.8659 23.5235 97.881C23.6386 97.8961 23.7555 97.8859 23.8662 97.8513C23.977 97.8167 24.0789 97.7584 24.1648 97.6804C24.2508 97.6025 24.3187 97.5068 24.364 97.4C24.596 93.34 24.696 87.484 22.9 81.376C22.3411 79.3503 21.5771 77.3868 20.62 75.516C20.3664 74.9895 20.0735 74.4827 19.744 74Z" fill="black"/>
<path d="M26.588 72.932C26.528 72.932 26.696 73.524 26.788 74.588C27.0186 76.6946 27.0655 78.8173 26.928 80.932C26.5105 86.3775 25.0978 91.7002 22.76 96.636C22.8351 96.7211 22.9274 96.7893 23.0309 96.836C23.1343 96.8827 23.2465 96.9069 23.36 96.9069C23.4735 96.9069 23.5857 96.8827 23.6892 96.836C23.7926 96.7893 23.8849 96.7211 23.96 96.636C25.4 92.836 27.248 87.276 27.368 80.912C27.448 78.8119 27.3139 76.709 26.968 74.636C26.8845 74.0592 26.7575 73.4896 26.588 72.932Z" fill="#6F4A8E"/>
<path opacity="0.3" d="M26.588 72.932C26.528 72.932 26.696 73.524 26.788 74.588C27.0186 76.6946 27.0655 78.8173 26.928 80.932C26.5105 86.3775 25.0978 91.7002 22.76 96.636C22.8351 96.7211 22.9274 96.7893 23.0309 96.836C23.1343 96.8827 23.2465 96.9069 23.36 96.9069C23.4735 96.9069 23.5857 96.8827 23.6892 96.836C23.7926 96.7893 23.8849 96.7211 23.96 96.636C25.4 92.836 27.248 87.276 27.368 80.912C27.448 78.8119 27.3139 76.709 26.968 74.636C26.8845 74.0592 26.7575 73.4896 26.588 72.932Z" fill="black"/>
<path d="M8.87602 80.6201C8.84802 80.6801 9.40002 80.9161 10.28 81.5201C12.0525 82.6803 13.7202 83.9933 15.264 85.4441C19.198 89.2303 22.4068 93.7039 24.732 98.6441C24.8476 98.6418 24.9613 98.6145 25.0653 98.5641C25.1694 98.5137 25.2612 98.4413 25.3346 98.3519C25.408 98.2626 25.4611 98.1584 25.4904 98.0466C25.5196 97.9347 25.5243 97.8179 25.504 97.704C23.504 94.176 20.368 89.2121 15.532 85.0761C13.9596 83.6826 12.2479 82.4548 10.424 81.4121C9.92932 81.1083 9.41176 80.8435 8.87602 80.6201Z" fill="#6F4A8E"/>
<path opacity="0.3" d="M8.87602 80.6201C8.84802 80.6801 9.40002 80.9161 10.28 81.5201C12.0525 82.6803 13.7202 83.9933 15.264 85.4441C19.198 89.2303 22.4068 93.7039 24.732 98.6441C24.8476 98.6418 24.9613 98.6145 25.0653 98.5641C25.1694 98.5137 25.2612 98.4413 25.3346 98.3519C25.408 98.2626 25.4611 98.1584 25.4904 98.0466C25.5196 97.9347 25.5243 97.8179 25.504 97.704C23.504 94.176 20.368 89.2121 15.532 85.0761C13.9596 83.6826 12.2479 82.4548 10.424 81.4121C9.92932 81.1083 9.41176 80.8435 8.87602 80.6201Z" fill="black"/>
<path d="M8.50003 71.492C8.44803 71.564 9.11603 72.028 10.1 73.064C12.1313 75.0878 13.9848 77.2826 15.64 79.624C19.8236 85.712 22.8601 92.513 24.6 99.692C24.7535 99.7196 24.9111 99.714 25.0622 99.6753C25.2132 99.6367 25.3542 99.5661 25.4756 99.4682C25.597 99.3704 25.6959 99.2475 25.7657 99.1081C25.8355 98.9687 25.8745 98.8159 25.88 98.66C24.164 93.436 21.392 86 16.108 79.2C14.4034 76.9273 12.4707 74.8351 10.34 72.956C9.74803 72.464 8.55203 71.424 8.50003 71.492Z" fill="#6F4A8E"/>
<path opacity="0.2" d="M8.50003 71.492C8.44803 71.564 9.11603 72.028 10.1 73.064C12.1313 75.0878 13.9848 77.2826 15.64 79.624C19.8236 85.712 22.8601 92.513 24.6 99.692C24.7535 99.7196 24.9111 99.714 25.0622 99.6753C25.2132 99.6367 25.3542 99.5661 25.4756 99.4682C25.597 99.3704 25.6959 99.2475 25.7657 99.1081C25.8355 98.9687 25.8745 98.8159 25.88 98.66C24.164 93.436 21.392 86 16.108 79.2C14.4034 76.9273 12.4707 74.8351 10.34 72.956C9.74803 72.464 8.55203 71.424 8.50003 71.492Z" fill="black"/>
<path d="M10.576 73.552C10.576 73.552 10.272 73.976 10.86 74.752C11.448 75.528 13.064 77.316 13.708 77.952C14.108 78.352 15.34 77.64 14.816 76.916C13.9914 75.7977 13.072 74.7525 12.068 73.792C11.428 73.216 11.092 73.088 10.76 73.348L10.808 73.388C10.848 73.424 10.836 73.504 10.776 73.568C10.7582 73.5911 10.7334 73.6079 10.7053 73.6158C10.6772 73.6237 10.6473 73.6224 10.62 73.612L10.576 73.552Z" fill="#B16668"/>
<path d="M21.06 69.2C20.992 69.236 21.344 69.868 21.736 71.088C22.57 73.4962 23.1937 75.9721 23.6 78.488C24.5638 84.9795 24.3306 91.5926 22.912 98C23.0241 98.0823 23.1526 98.1393 23.2888 98.1674C23.4249 98.1955 23.5655 98.1939 23.701 98.1628C23.8365 98.1317 23.9637 98.0718 24.074 97.9871C24.1843 97.9024 24.275 97.7949 24.34 97.672C25.004 92.836 25.688 85.824 24.124 78.336C23.6482 75.8564 22.9204 73.4318 21.952 71.1C21.68 70.464 21.128 69.168 21.06 69.2Z" fill="#6F4A8E"/>
<path opacity="0.2" d="M21.06 69.2C20.992 69.236 21.344 69.868 21.736 71.088C22.57 73.4962 23.1937 75.9721 23.6 78.488C24.5638 84.9795 24.3306 91.5926 22.912 98C23.0241 98.0823 23.1526 98.1393 23.2888 98.1674C23.4249 98.1955 23.5655 98.1939 23.701 98.1628C23.8365 98.1317 23.9637 98.0718 24.074 97.9871C24.1843 97.9024 24.275 97.7949 24.34 97.672C25.004 92.836 25.688 85.824 24.124 78.336C23.6482 75.8564 22.9204 73.4318 21.952 71.1C21.68 70.464 21.128 69.168 21.06 69.2Z" fill="black"/>
<path d="M21.9161 71.66C21.9161 71.66 21.5161 71.88 21.6721 72.724C21.8241 73.504 22.4361 75.632 22.7041 76.38C22.8721 76.852 24.1281 76.78 23.9921 75.98C23.771 74.7663 23.4458 73.5739 23.0201 72.416C22.7321 71.704 22.5161 71.472 22.1481 71.552L22.1681 71.604C22.1681 71.648 22.1481 71.704 22.0721 71.732C22.0494 71.7441 22.0233 71.7483 21.998 71.744C21.9726 71.7396 21.9495 71.727 21.9321 71.708L21.9161 71.66Z" fill="#B16668"/>
<path d="M11.568 67.268C11.508 67.332 12.116 67.872 12.988 69.02C14.7703 71.2653 16.3524 73.6625 17.716 76.184C21.156 82.7196 23.3686 89.8305 24.244 97.164C24.244 97.164 25.288 97.504 25.636 96.284C24.544 90.9 22.664 83.2 18.216 75.828C16.7918 73.3689 15.1176 71.0634 13.22 68.948C12.692 68.376 11.628 67.2 11.568 67.268Z" fill="#6F4A8E"/>
<path opacity="0.2" d="M11.568 67.268C11.508 67.332 12.116 67.872 12.988 69.02C14.7703 71.2653 16.3524 73.6625 17.716 76.184C21.156 82.7196 23.3686 89.8305 24.244 97.164C24.244 97.164 25.288 97.504 25.636 96.284C24.544 90.9 22.664 83.2 18.216 75.828C16.7918 73.3689 15.1176 71.0634 13.22 68.948C12.692 68.376 11.628 67.2 11.568 67.268Z" fill="black"/>
<path d="M64.508 51.092C64.564 51.092 64.436 51.604 64.384 52.52C64.2502 54.3345 64.2716 56.1571 64.448 57.968C64.9669 62.6277 66.3348 67.153 68.484 71.32C68.4217 71.3969 68.3435 71.4596 68.2549 71.5037C68.1663 71.5479 68.0692 71.5725 67.9702 71.5759C67.8712 71.5793 67.7727 71.5614 67.6812 71.5235C67.5898 71.4856 67.5075 71.4284 67.44 71.356C66.096 68.156 64.344 63.416 64.06 57.96C63.9339 56.1599 63.9942 54.3516 64.24 52.564C64.2926 52.0673 64.3822 51.5753 64.508 51.092Z" fill="#6F4A8E"/>
<path opacity="0.3" d="M64.508 51.092C64.564 51.092 64.436 51.604 64.384 52.52C64.2502 54.3345 64.2716 56.1571 64.448 57.968C64.9669 62.6277 66.3348 67.153 68.484 71.32C68.4217 71.3969 68.3435 71.4596 68.2549 71.5037C68.1663 71.5479 68.0692 71.5725 67.9702 71.5759C67.8712 71.5793 67.7727 71.5614 67.6812 71.5235C67.5898 71.4856 67.5075 71.4284 67.44 71.356C66.096 68.156 64.344 63.416 64.06 57.96C63.9339 56.1599 63.9942 54.3516 64.24 52.564C64.2926 52.0673 64.3822 51.5753 64.508 51.092Z" fill="black"/>
<path d="M58.66 52.172C58.716 52.172 58.744 52.684 58.972 53.572C59.3851 55.3444 59.9512 57.0775 60.664 58.752C62.5551 63.0411 65.2149 66.9481 68.512 70.28C68.4752 70.3721 68.4191 70.4553 68.3476 70.5239C68.276 70.5926 68.1905 70.6452 68.097 70.6781C68.0034 70.7111 67.9039 70.7237 67.8051 70.715C67.7063 70.7064 67.6104 70.6767 67.524 70.628C65.28 67.956 62.196 63.98 60.288 58.86C59.633 57.1797 59.1492 55.4375 58.844 53.66C58.7447 53.1694 58.6832 52.672 58.66 52.172Z" fill="#6F4A8E"/>
<path opacity="0.3" d="M58.66 52.172C58.716 52.172 58.744 52.684 58.972 53.572C59.3851 55.3444 59.9512 57.0775 60.664 58.752C62.5551 63.0411 65.2149 66.9481 68.512 70.28C68.4752 70.3721 68.4191 70.4553 68.3476 70.5239C68.276 70.5926 68.1905 70.6452 68.097 70.6781C68.0034 70.7111 67.9039 70.7237 67.8051 70.715C67.7063 70.7064 67.6104 70.6767 67.524 70.628C65.28 67.956 62.196 63.98 60.288 58.86C59.633 57.1797 59.1492 55.4375 58.844 53.66C58.7447 53.1694 58.6832 52.672 58.66 52.172Z" fill="black"/>
<path d="M75.2001 53.356C75.2361 53.396 74.8561 53.756 74.3161 54.484C73.2112 55.9298 72.2342 57.4689 71.3961 59.084C69.2892 63.2716 67.9648 67.8087 67.4881 72.472C67.394 72.5027 67.2943 72.5128 67.196 72.5015C67.0977 72.4902 67.0029 72.4578 66.9182 72.4065C66.8336 72.3553 66.761 72.2864 66.7054 72.2045C66.6498 72.1226 66.6125 72.0296 66.5961 71.932C67.2281 68.5 68.3361 63.592 71.0761 58.864C71.9523 57.2872 72.9884 55.8048 74.1681 54.44C74.4835 54.0525 74.8285 53.6901 75.2001 53.356Z" fill="#6F4A8E"/>
<path opacity="0.3" d="M75.2001 53.356C75.2361 53.396 74.8561 53.756 74.3161 54.484C73.2112 55.9298 72.2342 57.4689 71.3961 59.084C69.2892 63.2716 67.9648 67.8087 67.4881 72.472C67.394 72.5027 67.2943 72.5128 67.196 72.5015C67.0977 72.4902 67.0029 72.4578 66.9182 72.4065C66.8336 72.3553 66.761 72.2864 66.7054 72.2045C66.6498 72.1226 66.6125 72.0296 66.5961 71.932C67.2281 68.5 68.3361 63.592 71.0761 58.864C71.9523 57.2872 72.9884 55.8048 74.1681 54.44C74.4835 54.0525 74.8285 53.6901 75.2001 53.356Z" fill="black"/>
<path d="M72.9 45.856C72.964 45.9 72.556 46.464 72.04 47.592C70.9709 49.8082 70.0956 52.1128 69.424 54.48C67.7715 60.6009 67.2523 66.9724 67.892 73.28C67.7749 73.3458 67.645 73.3856 67.5111 73.3967C67.3773 73.4079 67.2426 73.3901 67.1163 73.3445C66.9899 73.299 66.8748 73.2268 66.7788 73.1328C66.6829 73.0389 66.6082 72.9254 66.56 72.8C66.464 68.084 66.596 61.28 68.94 54.268C69.6733 51.942 70.6423 49.697 71.832 47.568C72.1459 46.9722 72.5029 46.4 72.9 45.856Z" fill="#6F4A8E"/>
<path opacity="0.2" d="M72.9 45.856C72.964 45.9 72.556 46.464 72.04 47.592C70.9709 49.8082 70.0956 52.1128 69.424 54.48C67.7715 60.6009 67.2523 66.9724 67.892 73.28C67.7749 73.3458 67.645 73.3856 67.5111 73.3967C67.3773 73.4079 67.2426 73.3901 67.1163 73.3445C66.9899 73.299 66.8748 73.2268 66.7788 73.1328C66.6829 73.0389 66.6082 72.9254 66.56 72.8C66.464 68.084 66.596 61.28 68.94 54.268C69.6733 51.942 70.6423 49.697 71.832 47.568C72.1459 46.9722 72.5029 46.4 72.9 45.856Z" fill="black"/>
<path d="M71.804 48.116C71.804 48.116 72.172 48.372 71.92 49.164C71.668 49.956 70.86 51.868 70.52 52.56C70.304 52.992 69.108 52.768 69.32 52.032C69.6737 50.8945 70.1205 49.7881 70.656 48.724C71.012 48.072 71.248 47.872 71.592 47.988L71.564 48.036C71.54 48.076 71.564 48.14 71.644 48.172C71.6638 48.1863 71.6876 48.194 71.712 48.194C71.7364 48.194 71.7602 48.1863 71.78 48.172L71.804 48.116Z" fill="#B16668"/>
<path d="M62.076 47.6C62.144 47.6 62.036 48.22 62.076 49.32C62.0877 51.5079 62.2884 53.6907 62.676 55.844C63.7466 61.3728 65.8179 66.6595 68.788 71.444C68.7204 71.542 68.6326 71.6244 68.5304 71.6855C68.4283 71.7466 68.3142 71.7851 68.1959 71.7984C68.0776 71.8117 67.9578 71.7994 67.8447 71.7624C67.7315 71.7254 67.6276 71.6646 67.54 71.584C65.624 67.856 63.076 62.384 62.208 55.86C61.8874 53.7159 61.7856 51.5448 61.904 49.38C61.9186 48.7833 61.976 48.1885 62.076 47.6Z" fill="#6F4A8E"/>
<path opacity="0.2" d="M62.076 47.6C62.144 47.6 62.036 48.22 62.076 49.32C62.0877 51.5079 62.2884 53.6907 62.676 55.844C63.7466 61.3728 65.8179 66.6595 68.788 71.444C68.7204 71.542 68.6326 71.6244 68.5304 71.6855C68.4283 71.7466 68.3142 71.7851 68.1959 71.7984C68.0776 71.8117 67.9578 71.7994 67.8447 71.7624C67.7315 71.7254 67.6276 71.6646 67.54 71.584C65.624 67.856 63.076 62.384 62.208 55.86C61.8874 53.7159 61.7856 51.5448 61.904 49.38C61.9186 48.7833 61.976 48.1885 62.076 47.6Z" fill="black"/>
<path d="M62.0841 49.812C62.0841 49.812 62.4841 49.872 62.5841 50.612C62.6841 51.352 62.7921 53.184 62.7921 53.868C62.7921 54.3 61.7441 54.588 61.6321 53.916C61.4688 52.8695 61.3926 51.8112 61.4041 50.752C61.4361 50.092 61.5481 49.844 61.8681 49.8V49.848C61.8681 49.888 61.9161 49.928 61.9841 49.928C62.0061 49.9304 62.0282 49.9253 62.047 49.9138C62.0658 49.9022 62.0803 49.8847 62.0881 49.8641L62.0841 49.812Z" fill="#B16668"/>
<path d="M69.2 43.308C69.268 43.344 68.928 43.952 68.552 45.132C67.7485 47.4582 67.1489 49.8499 66.76 52.28C65.8386 58.5534 66.0718 64.9425 67.448 71.132C67.34 71.2114 67.2162 71.2665 67.085 71.2936C66.9538 71.3208 66.8182 71.3193 66.6876 71.2893C66.557 71.2593 66.4344 71.2015 66.3282 71.1198C66.222 71.0381 66.1346 70.9345 66.072 70.816C65.42 66.144 64.752 59.372 66.256 52.136C66.7096 49.7389 67.4079 47.3946 68.34 45.14C68.62 44.528 69.148 43.272 69.2 43.308Z" fill="#6F4A8E"/>
<path opacity="0.2" d="M69.2 43.308C69.268 43.344 68.928 43.952 68.552 45.132C67.7485 47.4582 67.1489 49.8499 66.76 52.28C65.8386 58.5534 66.0718 64.9425 67.448 71.132C67.34 71.2114 67.2162 71.2665 67.085 71.2936C66.9538 71.3208 66.8182 71.3193 66.6876 71.2893C66.557 71.2593 66.4344 71.2015 66.3282 71.1198C66.222 71.0381 66.1346 70.9345 66.072 70.816C65.42 66.144 64.752 59.372 66.256 52.136C66.7096 49.7389 67.4079 47.3946 68.34 45.14C68.62 44.528 69.148 43.272 69.2 43.308Z" fill="black"/>
<path d="M119.764 92.236V110.8C119.787 111.058 119.879 111.305 120.029 111.516C120.18 111.727 120.384 111.894 120.62 112C121.26 112.323 121.967 112.492 122.684 112.492C123.401 112.492 124.108 112.323 124.748 112C124.984 111.894 125.188 111.727 125.338 111.516C125.488 111.305 125.578 111.058 125.6 110.8V92.236H119.764Z" fill="#263238"/>
<path d="M120.8 93.428L120.976 94.812L121.212 93.576L120.8 93.428Z" fill="#455A64"/>
<path d="M121.604 93.696L121.724 94.668L121.892 93.8L121.604 93.696Z" fill="#455A64"/>
<path d="M120.62 93.428C121.259 93.7533 121.967 93.9228 122.684 93.9228C123.401 93.9228 124.109 93.7533 124.748 93.428C125.884 92.772 125.884 91.704 124.748 91.048C124.108 90.7237 123.401 90.5546 122.684 90.5546C121.967 90.5546 121.26 90.7237 120.62 91.048C119.48 91.704 119.48 92.772 120.62 93.428Z" fill="#37474F"/>
<path d="M101.892 81.96V100.508C101.914 100.766 102.005 101.014 102.155 101.225C102.306 101.437 102.511 101.603 102.748 101.708C103.387 102.033 104.093 102.203 104.81 102.203C105.527 102.203 106.233 102.033 106.872 101.708C107.109 101.603 107.314 101.437 107.465 101.225C107.615 101.014 107.706 100.766 107.728 100.508V81.96H101.892Z" fill="#263238"/>
<path d="M102.928 83.152L103.1 84.536L103.34 83.3L102.928 83.152Z" fill="#455A64"/>
<path d="M103.728 83.416L103.852 84.388L104.02 83.524L103.728 83.416Z" fill="#455A64"/>
<path d="M102.748 83.152C103.387 83.4754 104.094 83.6439 104.81 83.6439C105.526 83.6439 106.233 83.4754 106.872 83.152C108.012 82.492 108.012 81.428 106.872 80.752C106.233 80.4286 105.526 80.2601 104.81 80.2601C104.094 80.2601 103.387 80.4286 102.748 80.752C101.6 81.424 101.6 82.492 102.748 83.152Z" fill="#37474F"/>
<path d="M29.712 101.796L76.512 74.776C76.7182 74.6391 76.8898 74.4562 77.0133 74.2417C77.1369 74.0273 77.209 73.7871 77.224 73.54V72.092C77.2085 71.8446 77.1358 71.6042 77.0116 71.3897C76.8873 71.1752 76.7149 70.9925 76.508 70.856L67.216 65.492C66.9942 65.3814 66.7498 65.3239 66.502 65.3239C66.2542 65.3239 66.0097 65.3814 65.788 65.492L18.988 92.512C18.7805 92.6489 18.6078 92.8322 18.4835 93.0474C18.3592 93.2627 18.2868 93.5039 18.272 93.752V95.2C18.2856 95.4478 18.3575 95.689 18.4819 95.9038C18.6063 96.1186 18.7797 96.3009 18.988 96.436L28.276 101.8C28.4985 101.913 28.7448 101.972 28.9945 101.971C29.2441 101.97 29.49 101.91 29.712 101.796Z" fill="#263238"/>
<path d="M18.996 93.34L28.284 98.7C28.5052 98.8124 28.7498 98.871 28.998 98.871C29.2461 98.871 29.4908 98.8124 29.712 98.7L76.512 71.68C76.5976 71.6503 76.6719 71.5947 76.7245 71.5209C76.7771 71.447 76.8053 71.3586 76.8053 71.268C76.8053 71.1774 76.7771 71.089 76.7245 71.0151C76.6719 70.9413 76.5976 70.8857 76.512 70.856L67.22 65.492C66.9982 65.3814 66.7538 65.3239 66.506 65.3239C66.2582 65.3239 66.0137 65.3814 65.792 65.492L18.992 92.512C18.905 92.5412 18.8295 92.597 18.7761 92.6716C18.7228 92.7462 18.6943 92.8357 18.6947 92.9274C18.6952 93.0192 18.7245 93.1084 18.7786 93.1825C18.8327 93.2565 18.9087 93.3117 18.996 93.34Z" fill="#455A64"/>
<path d="M29 98.872V101.964C28.7498 101.968 28.5025 101.911 28.28 101.796L18.996 96.432C18.7896 96.2959 18.6175 96.1138 18.4933 95.9001C18.3691 95.6863 18.2961 95.4467 18.28 95.2V93.756C18.2936 93.536 18.3525 93.3212 18.453 93.125C18.5535 92.9288 18.6934 92.7555 18.864 92.616C18.604 92.84 18.652 93.14 18.996 93.348L28.28 98.708C28.5016 98.8246 28.7498 98.8812 29 98.872Z" fill="#37474F"/>
<path d="M41.768 108.756L88.568 81.736C88.7742 81.5991 88.9458 81.4162 89.0694 81.2017C89.1929 80.9873 89.265 80.747 89.28 80.5V79.056C89.2675 78.8078 89.1965 78.5661 89.0727 78.3506C88.949 78.1351 88.7761 77.9519 88.568 77.816L79.276 72.456C79.0548 72.3436 78.8102 72.285 78.562 72.285C78.3139 72.285 78.0692 72.3436 77.848 72.456L31.048 99.476C30.8401 99.6104 30.6668 99.7921 30.5424 100.006C30.418 100.22 30.3459 100.461 30.332 100.708V102.156C30.3456 102.404 30.4175 102.645 30.542 102.86C30.6664 103.075 30.8398 103.257 31.048 103.392L40.336 108.756C40.5578 108.869 40.8031 108.928 41.052 108.928C41.3009 108.928 41.5463 108.869 41.768 108.756Z" fill="#263238"/>
<path d="M31.0519 100.3L40.3399 105.664C40.5617 105.775 40.8061 105.832 41.0539 105.832C41.3018 105.832 41.5462 105.775 41.7679 105.664L88.5679 78.644C88.655 78.6152 88.7308 78.5597 88.7846 78.4854C88.8383 78.4111 88.8672 78.3217 88.8672 78.23C88.8672 78.1383 88.8383 78.0489 88.7846 77.9746C88.7308 77.9002 88.655 77.8447 88.5679 77.816L79.276 72.456C79.0547 72.3436 78.8101 72.285 78.5619 72.285C78.3138 72.285 78.0692 72.3436 77.8479 72.456L31.0479 99.476C30.9624 99.5061 30.8884 99.562 30.8362 99.6361C30.784 99.7102 30.7562 99.7988 30.7566 99.8894C30.757 99.9801 30.7857 100.068 30.8387 100.142C30.8916 100.215 30.9661 100.271 31.0519 100.3Z" fill="#455A64"/>
<path d="M41.0559 105.832V108.928C40.8054 108.931 40.5581 108.872 40.3359 108.756L31.0479 103.392C30.8412 103.255 30.6693 103.071 30.5457 102.856C30.4221 102.641 30.3503 102.4 30.3359 102.152V100.708C30.349 100.488 30.4073 100.274 30.5071 100.078C30.6069 99.8814 30.7461 99.7079 30.9159 99.568C30.6599 99.792 30.7079 100.096 31.0479 100.3L40.3359 105.66C40.5567 105.779 40.805 105.839 41.0559 105.832Z" fill="#37474F"/>
<path d="M53.8239 115.716L100.624 88.696C100.832 88.561 101.005 88.3785 101.129 88.1637C101.252 87.9488 101.323 87.7077 101.336 87.46V86C101.323 85.752 101.251 85.5106 101.127 85.2958C101.002 85.0809 100.829 84.8986 100.62 84.764L91.3279 79.4C91.1067 79.2876 90.862 79.229 90.6139 79.229C90.3658 79.229 90.1211 79.2876 89.8999 79.4L43.0999 106.42C42.8917 106.555 42.7183 106.737 42.5938 106.952C42.4694 107.167 42.3975 107.408 42.3839 107.656V109.1C42.3975 109.348 42.4694 109.589 42.5938 109.804C42.7183 110.019 42.8917 110.201 43.0999 110.336L52.3999 115.716C52.6206 115.828 52.8645 115.886 53.1119 115.886C53.3593 115.886 53.6032 115.828 53.8239 115.716Z" fill="#263238"/>
<path d="M43.1079 107.26L52.3999 112.624C52.6211 112.736 52.8658 112.795 53.1139 112.795C53.3621 112.795 53.6067 112.736 53.8279 112.624L100.628 85.604C100.714 85.5744 100.788 85.5187 100.84 85.4449C100.893 85.3711 100.921 85.2827 100.921 85.192C100.921 85.1014 100.893 85.013 100.84 84.9391C100.788 84.8653 100.714 84.8097 100.628 84.78L91.3359 79.416C91.1147 79.3036 90.8701 79.245 90.6219 79.245C90.3738 79.245 90.1291 79.3036 89.9079 79.416L43.1079 106.436C43.0223 106.466 42.948 106.521 42.8954 106.595C42.8428 106.669 42.8146 106.757 42.8146 106.848C42.8146 106.939 42.8428 107.027 42.8954 107.101C42.948 107.175 43.0223 107.23 43.1079 107.26Z" fill="#455A64"/>
<path d="M53.112 112.8V115.896C52.8615 115.899 52.6141 115.84 52.392 115.724L43.108 110.36C42.8993 110.225 42.7258 110.042 42.602 109.826C42.4782 109.61 42.4075 109.368 42.396 109.12V107.676C42.4091 107.456 42.4673 107.242 42.5671 107.046C42.6669 106.849 42.8061 106.676 42.976 106.536C42.716 106.76 42.764 107.064 43.108 107.268L52.4 112.62C52.6176 112.741 52.863 112.803 53.112 112.8Z" fill="#37474F"/>
<path d="M65.88 122.676L112.68 95.656C112.889 95.5214 113.062 95.3391 113.187 95.1242C113.311 94.9093 113.383 94.668 113.396 94.42V92.976C113.382 92.7281 113.311 92.487 113.186 92.2722C113.062 92.0574 112.888 91.875 112.68 91.74L103.392 86.376C103.171 86.2635 102.926 86.205 102.678 86.205C102.43 86.205 102.185 86.2635 101.964 86.376L55.164 113.396C54.9578 113.533 54.7862 113.716 54.6627 113.93C54.5391 114.145 54.467 114.385 54.452 114.632V116.076C54.4645 116.324 54.5356 116.565 54.6593 116.78C54.7831 116.994 54.9561 117.177 55.164 117.312L64.452 122.676C64.6732 122.788 64.9179 122.847 65.166 122.847C65.4142 122.847 65.6588 122.788 65.88 122.676Z" fill="#263238"/>
<path d="M55.164 114.22L64.452 119.6C64.6732 119.712 64.9179 119.771 65.166 119.771C65.4142 119.771 65.6588 119.712 65.88 119.6L112.68 92.58C112.766 92.5503 112.84 92.4947 112.893 92.4208C112.945 92.347 112.973 92.2586 112.973 92.168C112.973 92.0773 112.945 91.9889 112.893 91.9151C112.84 91.8412 112.766 91.7856 112.68 91.756L103.392 86.392C103.171 86.2795 102.926 86.2209 102.678 86.2209C102.43 86.2209 102.185 86.2795 101.964 86.392L55.164 113.412C55.0836 113.445 55.0148 113.5 54.9663 113.572C54.9179 113.644 54.892 113.729 54.892 113.816C54.892 113.903 54.9179 113.988 54.9663 114.06C55.0148 114.131 55.0836 114.187 55.164 114.22Z" fill="#455A64"/>
<path d="M65.168 119.756V122.848C64.9187 122.851 64.6726 122.792 64.452 122.676L55.164 117.312C54.9553 117.177 54.7818 116.994 54.658 116.778C54.5342 116.562 54.4636 116.32 54.452 116.072V114.628C54.4651 114.408 54.5234 114.194 54.6232 113.997C54.7229 113.801 54.8621 113.628 55.032 113.488C54.776 113.712 54.82 114.016 55.164 114.22L64.452 119.6C64.6734 119.712 64.9199 119.766 65.168 119.756Z" fill="#37474F"/>
<path d="M77.94 129.636L124.74 102.62C124.947 102.483 125.12 102.3 125.244 102.085C125.369 101.869 125.441 101.628 125.456 101.38V99.936C125.441 99.6889 125.369 99.4487 125.245 99.2343C125.122 99.0198 124.95 98.8369 124.744 98.7L115.452 93.336C115.231 93.2236 114.986 93.165 114.738 93.165C114.49 93.165 114.245 93.2236 114.024 93.336L67.224 120.356C67.0178 120.493 66.8462 120.676 66.7226 120.89C66.5991 121.105 66.527 121.345 66.512 121.592V123.036C66.5263 123.284 66.5982 123.525 66.7217 123.74C66.8453 123.955 67.0172 124.139 67.224 124.276L76.516 129.636C76.7367 129.748 76.9806 129.806 77.228 129.806C77.4754 129.806 77.7193 129.748 77.94 129.636Z" fill="#263238"/>
<path d="M67.22 121.2L76.508 126.564C76.7303 126.675 76.9754 126.733 77.224 126.733C77.4725 126.733 77.7177 126.675 77.94 126.564L124.74 99.544C124.826 99.5143 124.9 99.4587 124.953 99.3849C125.005 99.311 125.033 99.2227 125.033 99.132C125.033 99.0414 125.005 98.953 124.953 98.8791C124.9 98.8053 124.826 98.7497 124.74 98.72L115.448 93.356C115.227 93.2436 114.982 93.185 114.734 93.185C114.486 93.185 114.241 93.2436 114.02 93.356L67.22 120.376C67.1343 120.406 67.06 120.461 67.0075 120.535C66.9549 120.609 66.9266 120.697 66.9266 120.788C66.9266 120.879 66.9549 120.967 67.0075 121.041C67.06 121.115 67.1343 121.17 67.22 121.2Z" fill="#455A64"/>
<path d="M77.2279 126.716V129.808C76.9773 129.812 76.7297 129.753 76.5079 129.636L67.2199 124.276C67.0127 124.138 66.8404 123.954 66.7168 123.738C66.5932 123.522 66.5217 123.28 66.5079 123.032V121.6C66.521 121.38 66.5793 121.166 66.6791 120.97C66.7789 120.773 66.9181 120.6 67.0879 120.46C66.8319 120.684 66.8759 120.988 67.2199 121.192L76.5079 126.556C76.7302 126.67 76.9782 126.726 77.2279 126.716Z" fill="#37474F"/>
<path d="M69.432 121.28V139.828C69.4538 140.086 69.5447 140.334 69.6954 140.545C69.846 140.757 70.0507 140.923 70.288 141.028C70.9273 141.351 71.6336 141.52 72.35 141.52C73.0664 141.52 73.7728 141.351 74.412 141.028C74.6493 140.923 74.854 140.757 75.0047 140.545C75.1553 140.334 75.2463 140.086 75.268 139.828V121.28H69.432Z" fill="#263238"/>
<path d="M70.468 122.468L70.64 123.852L70.876 122.62L70.468 122.468Z" fill="#455A64"/>
<path d="M71.2679 122.736L71.3919 123.708L71.56 122.84L71.2679 122.736Z" fill="#455A64"/>
<path d="M70.288 122.468C70.9267 122.793 71.6332 122.963 72.35 122.963C73.0667 122.963 73.7733 122.793 74.412 122.468C75.552 121.812 75.552 120.744 74.412 120.088C73.7733 119.763 73.0667 119.593 72.35 119.593C71.6332 119.593 70.9267 119.763 70.288 120.088C69.148 120.744 69.148 121.812 70.288 122.468Z" fill="#37474F"/>
<path d="M51.5599 111V129.552C51.5817 129.81 51.6723 130.057 51.8221 130.268C51.972 130.479 52.1756 130.646 52.4119 130.752C53.0513 131.077 53.7586 131.247 54.4759 131.247C55.1933 131.247 55.9005 131.077 56.5399 130.752C56.7767 130.647 56.981 130.48 57.1315 130.269C57.2821 130.058 57.3734 129.81 57.3959 129.552V111H51.5599Z" fill="#263238"/>
<path d="M52.5959 112.192L52.7679 113.576L53.0039 112.34L52.5959 112.192Z" fill="#455A64"/>
<path d="M53.396 112.46L53.52 113.432L53.684 112.564L53.396 112.46Z" fill="#455A64"/>
<path d="M52.4 112.192C53.04 112.515 53.747 112.684 54.464 112.684C55.181 112.684 55.888 112.515 56.528 112.192C57.668 111.532 57.668 110.468 56.528 109.792C55.888 109.469 55.181 109.3 54.464 109.3C53.747 109.3 53.04 109.469 52.4 109.792C51.276 110.468 51.276 111.532 52.4 112.192Z" fill="#37474F"/>
<path d="M97.6001 60.1C100.3 60.372 102.124 62.1 103.072 66.688C104.112 71.748 104.612 82.144 104.612 82.144L113.46 82.8C113.46 82.8 115.948 83.356 116.496 85.44C117.044 87.524 115.74 91.004 114.156 91.868C112.572 92.732 110.992 92.24 109.968 91.888C108.944 91.536 107.12 88.468 107.12 88.468C107.12 88.468 95.9521 88.368 95.9201 88.372C95.8881 88.376 97.6001 60.1 97.6001 60.1Z" fill="#B16668"/>
<path d="M96.568 59.924C96.568 59.924 98.88 59.924 100.452 61.016C102.024 62.108 102.892 63.724 103.464 67.816C104.052 72.076 104.632 78.248 104.632 78.248C104.632 78.248 102.632 80.776 97.228 79.564L96.568 59.924Z" fill="#6F4A8E"/>
<path opacity="0.5" d="M96.568 59.924C96.568 59.924 98.88 59.924 100.452 61.016C102.024 62.108 102.892 63.724 103.464 67.816C104.052 72.076 104.632 78.248 104.632 78.248C104.632 78.248 102.632 80.776 97.228 79.564L96.568 59.924Z" fill="black"/>
<path d="M107.364 105.2C109.416 106.58 114.744 103.292 115.916 101.372C117.088 99.4519 117.228 98.3359 115.732 97.2719C114.236 96.2079 104.608 100.896 107.364 105.2Z" fill="#6F4A8E"/>
<path opacity="0.1" d="M107.364 105.2C109.416 106.58 114.744 103.292 115.916 101.372C117.088 99.4519 117.228 98.3359 115.732 97.2719C114.236 96.2079 104.608 100.896 107.364 105.2Z" fill="black"/>
<path d="M105.6 104.684C106.096 105.144 107.052 106.52 103.504 109.012C99.9561 111.504 97.9961 112.52 95.7401 111.292C93.4841 110.064 100.928 101.892 105.6 104.684Z" fill="#6F4A8E"/>
<path opacity="0.1" d="M105.6 104.684C106.096 105.144 107.052 106.52 103.504 109.012C99.9561 111.504 97.9961 112.52 95.7401 111.292C93.4841 110.064 100.928 101.892 105.6 104.684Z" fill="black"/>
<path d="M117.764 119.82C117.764 120.356 117.416 120.884 116.716 121.288C115.93 121.688 115.061 121.896 114.178 121.896C113.296 121.896 112.427 121.688 111.64 121.288C111.384 121.167 111.158 120.991 110.978 120.772C110.799 120.552 110.671 120.295 110.604 120.02C110.244 117.992 109.964 114.048 109.68 111.62C109.511 109.801 109.525 107.969 109.72 106.152L98.9684 99.432C99.2084 99.652 105.72 104.776 107.112 106.632C107.768 107.5 108.044 108.78 107.94 110.232C107.7 113.672 106.96 120.632 106.476 125.728C106.476 125.912 106.448 126.096 106.436 126.276C106.26 126.755 105.906 127.149 105.448 127.376C104.666 127.771 103.801 127.977 102.924 127.977C102.048 127.977 101.183 127.771 100.4 127.376C99.9609 127.157 99.6156 126.786 99.4284 126.332L99.3684 126.036C99.0284 124.276 98.7404 120.56 98.6324 119.268C98.3982 116.805 98.3007 114.33 98.3404 111.856C98.3404 111.856 87.1884 105.536 83.7564 103.008C76.4924 97.652 77.1084 95.908 76.8164 89.152C76.8164 89.152 96.2004 84.928 97.6644 86.168C100.228 88.336 117.48 97.12 118.632 100.42C119.016 101.548 118.232 113.116 117.764 119.82Z" fill="#B16668"/>
<path d="M102.756 102.336C103.756 103.059 104.709 103.843 105.612 104.684C105.612 104.684 103.316 103.716 99.744 105.972C97.864 107.172 95.936 109.644 95.744 111.292C95.744 111.292 84.144 105.132 80.636 101.728C77.128 98.324 76.572 94.62 76.804 89.156L97.916 86.356C97.916 86.356 104.22 89.844 108.848 92.756C114.26 96.148 115.724 97.312 115.724 97.312C115.724 97.312 114.236 96.912 111.456 98.712C107.456 101.316 106.992 104.4 107.356 105.24L102.756 102.336Z" fill="#6F4A8E"/>
<path opacity="0.7" d="M102.756 102.336C103.756 103.059 104.709 103.843 105.612 104.684C105.612 104.684 103.316 103.716 99.744 105.972C97.864 107.172 95.936 109.644 95.744 111.292C95.744 111.292 84.144 105.132 80.636 101.728C77.128 98.324 76.572 94.62 76.804 89.156L97.916 86.356C97.916 86.356 104.22 89.844 108.848 92.756C114.26 96.148 115.724 97.312 115.724 97.312C115.724 97.312 114.236 96.912 111.456 98.712C107.456 101.316 106.992 104.4 107.356 105.24L102.756 102.336Z" fill="white"/>
<path opacity="0.1" d="M102.756 102.336L95.912 96.42C95.912 96.42 98.136 94.544 99.168 92.324C99.1513 93.0978 98.977 93.8601 98.6558 94.5644C98.3346 95.2686 97.8733 95.9 97.3 96.42L103.008 101.956L107.364 105.2L102.756 102.336Z" fill="black"/>
<path d="M90.14 59.636C87.5422 59.6266 84.9524 59.9233 82.424 60.52C80.876 60.988 80.384 62.656 79.38 64.672C78.432 66.572 77.732 70.564 77.292 77.616C76.916 83.616 76.812 89.156 76.812 89.156C79.764 92.356 95.912 91.784 99.544 87.248C99.5278 86.5401 99.4352 85.8361 99.268 85.148C98.8623 83.2 98.942 81.182 99.5 79.272C100.576 75.516 101.528 70.752 101.64 68.704C101.912 63.716 100.752 60.304 96.568 59.924L90.14 59.636Z" fill="#6F4A8E"/>
<path opacity="0.3" d="M90.14 59.636C87.5422 59.6266 84.9524 59.9233 82.424 60.52C80.876 60.988 80.384 62.656 79.38 64.672C78.432 66.572 77.732 70.564 77.292 77.616C76.916 83.616 76.812 89.156 76.812 89.156C79.764 92.356 95.912 91.784 99.544 87.248C99.5278 86.5401 99.4352 85.8361 99.268 85.148C98.8623 83.2 98.942 81.182 99.5 79.272C100.576 75.516 101.528 70.752 101.64 68.704C101.912 63.716 100.752 60.304 96.568 59.924L90.14 59.636Z" fill="black"/>
<path d="M102.7 46.596C102.404 49.932 99.6601 52.412 96.5681 52.136C93.4761 51.86 91.2121 48.936 91.5081 45.604C91.8041 42.272 94.5521 39.788 97.6401 40.064C100.728 40.34 102.996 43.264 102.7 46.596Z" fill="#263238"/>
<path d="M85.636 48.844C85.36 45.712 85.372 44.308 86.196 43.604C86.4563 43.3834 86.7633 43.2249 87.0938 43.1404C87.4244 43.0558 87.7698 43.0475 88.104 43.116V48.716L88.504 52.768L88.268 56.268C87.9477 56.2269 87.6457 56.0957 87.3972 55.8896C87.1486 55.6836 86.9637 55.4111 86.864 55.104C86.512 54.208 85.928 50.728 85.708 49.376H85.672C85.672 49.192 85.64 49.016 85.624 48.844H85.636Z" fill="#263238"/>
<path d="M88.66 49.928C88.26 50.112 87.816 49.368 87.408 48.856C87 48.344 85.592 47.572 84.72 49.052C83.848 50.532 85.044 52.76 86.168 53.224C88.104 54.024 88.516 52.776 88.516 52.776L88.032 59.976C89.3397 62.368 91.1506 64.4478 93.34 66.072C94.22 64.96 95.144 61.768 94.54 60.36L94.728 58.176C95.6028 58.3956 96.4985 58.5216 97.4 58.552C98.884 58.452 99.908 57.38 100.496 55.832C101.436 53.352 102.06 51.272 101.812 46.52C101.528 41.072 95.172 40.084 91.528 41.948C87.884 43.812 88.66 49.928 88.66 49.928Z" fill="#B16668"/>
<path d="M88.604 50.54C88.42 50.54 87.828 49.308 87.404 48.856C86.828 48.228 88.1 43.116 88.1 43.116C88.1 43.116 87.636 41.096 88.996 39.916C90.46 38.628 92.852 39.14 94.596 39.284C96.86 39.468 99.056 39.684 101.18 38.684C101.308 38.5983 101.452 38.5408 101.604 38.5153C101.756 38.4897 101.911 38.4968 102.06 38.536C103.028 38.984 101.904 40.792 101.684 41.336C102.114 41.3198 102.53 41.181 102.884 40.936C103.152 40.772 103.508 40.508 103.552 41.028C103.72 43.028 102.284 44.628 100.456 45.16C99.184 45.56 97.816 45.388 96.508 45.16C95.608 44.996 94.72 44.728 93.816 44.616C93.068 44.52 92.316 44.34 91.584 44.172C90.916 44.02 90.712 44.664 90.188 46.424C89.724 47.944 89.224 50.584 88.604 50.54Z" fill="#263238"/>
<path d="M88.0721 43.52L85.972 42.14C86.0539 41.9962 86.1646 41.8709 86.2972 41.7719C86.4298 41.6729 86.5814 41.6024 86.7426 41.5648C86.9038 41.5273 87.0709 41.5234 87.2336 41.5536C87.3963 41.5837 87.5511 41.6472 87.6881 41.74C87.9676 41.9313 88.1632 42.2224 88.2347 42.5535C88.3061 42.8846 88.2479 43.2305 88.0721 43.52Z" fill="#263238"/>
<path d="M94.716 58.172C94.716 58.172 92.044 57.24 90.952 56.528C90.3108 56.1185 89.8087 55.5244 89.512 54.824C89.625 55.5084 89.8753 56.1629 90.248 56.748C90.988 57.892 94.648 59.04 94.648 59.04L94.716 58.172Z" fill="#9A4A4D"/>
<path d="M94.744 49.924C94.7197 50.0513 94.6585 50.1686 94.5681 50.2613C94.4776 50.354 94.3619 50.418 94.2353 50.4454C94.1087 50.4728 93.9769 50.4624 93.8562 50.4154C93.7355 50.3684 93.6313 50.2869 93.5565 50.1811C93.4818 50.0753 93.4399 49.9498 93.436 49.8204C93.432 49.6909 93.4663 49.5632 93.5345 49.453C93.6026 49.3429 93.7017 49.2552 93.8193 49.201C93.937 49.1468 94.068 49.1284 94.196 49.148C94.2831 49.1626 94.3665 49.1942 94.4414 49.2412C94.5162 49.2881 94.581 49.3495 94.632 49.4217C94.6829 49.4938 94.7191 49.5754 94.7383 49.6616C94.7575 49.7479 94.7595 49.8371 94.744 49.924Z" fill="#263238"/>
<path d="M93.976 47.456L92.564 48.224C92.4648 48.0307 92.4443 47.8064 92.507 47.5983C92.5696 47.3902 92.7105 47.2145 92.9 47.108C93.0889 47.0116 93.3083 46.9941 93.51 47.0593C93.7118 47.1246 93.8794 47.2673 93.976 47.456Z" fill="#263238"/>
<path d="M94.6521 54.248L96.3001 55.168C96.2444 55.2797 96.1667 55.3791 96.0717 55.4601C95.9767 55.5411 95.8663 55.6021 95.7471 55.6394C95.628 55.6768 95.5026 55.6897 95.3783 55.6774C95.2541 55.6651 95.1336 55.6279 95.0241 55.568C94.8025 55.4396 94.6397 55.2299 94.5702 54.9835C94.5008 54.737 94.5301 54.4732 94.6521 54.248Z" fill="#9A4A4D"/>
<path d="M100.772 48.448L99.3521 47.676C99.3974 47.5807 99.4616 47.4957 99.5409 47.4261C99.6202 47.3566 99.7128 47.3039 99.8132 47.2713C99.9135 47.2387 100.019 47.227 100.124 47.2367C100.229 47.2465 100.331 47.2775 100.424 47.328C100.614 47.4353 100.755 47.6109 100.82 47.819C100.885 48.0271 100.868 48.2521 100.772 48.448Z" fill="#263238"/>
<path d="M100.22 50.196C100.209 50.2832 100.18 50.3672 100.136 50.4433C100.092 50.5193 100.034 50.5859 99.9636 50.6391C99.8936 50.6923 99.8138 50.7311 99.7287 50.7532C99.6437 50.7754 99.5551 50.7804 99.4681 50.768C99.3323 50.7527 99.2042 50.6971 99.1003 50.6084C98.9965 50.5197 98.9215 50.4018 98.8852 50.2701C98.8489 50.1384 98.8528 49.9989 98.8966 49.8694C98.9403 49.74 99.0218 49.6266 99.1305 49.5439C99.2392 49.4612 99.3703 49.4129 99.5067 49.4053C99.6431 49.3978 99.7786 49.4312 99.8959 49.5014C100.013 49.5715 100.107 49.6752 100.164 49.799C100.222 49.9228 100.242 50.0611 100.22 50.196Z" fill="#263238"/>
<path d="M96.9761 49.508L96.5961 53.452L98.7441 53.064L96.9761 49.508Z" fill="#9A4A4D"/>
<path d="M110.584 80.548C109.176 79.748 107.912 79.684 107.008 80.252C106.82 80.368 106.608 80.472 106.352 80.616C106.286 80.6535 106.222 80.6949 106.16 80.74L106.128 80.76C106.041 80.82 105.96 80.8869 105.884 80.96L105.832 81.008C105.763 81.0776 105.697 81.151 105.636 81.228L105.568 81.316C105.516 81.388 105.464 81.464 105.416 81.544L105.344 81.676C105.304 81.752 105.264 81.824 105.228 81.904L105.156 82.092C105.128 82.168 105.1 82.24 105.076 82.316C105.052 82.392 105.036 82.48 105.016 82.564C104.994 82.6335 104.977 82.7043 104.964 82.776C104.944 82.88 104.932 82.992 104.916 83.1L104.892 83.284C104.876 83.46 104.868 83.644 104.868 83.836C104.868 87 107.092 90.848 109.832 92.432C110.004 92.528 110.172 92.616 110.34 92.696C110.44 92.74 110.536 92.776 110.636 92.812C110.701 92.8421 110.768 92.8688 110.836 92.892C110.904 92.916 110.968 92.928 111.036 92.948C111.104 92.968 111.228 93.008 111.32 93.028H111.428C111.548 93.048 111.668 93.068 111.784 93.08H111.808C112.371 93.125 112.933 92.9845 113.408 92.68C113.652 92.54 113.864 92.436 114.136 92.28C115.008 91.756 115.544 90.656 115.544 89.104C115.548 86 113.324 82.132 110.584 80.548ZM109.168 90.084C108.316 89.42 107.124 87.416 106.656 86.292C106.935 86.486 107.225 86.6636 107.524 86.824C108.816 87.492 108.78 86.588 109.308 87.224C109.836 87.86 109.732 89.388 109.308 90.184C109.257 90.1565 109.21 90.1229 109.168 90.084ZM111.684 84.204C111.611 84.2313 111.541 84.2633 111.472 84.3L110.712 84.736C110.551 84.8213 110.419 84.9521 110.332 85.112C109.692 84.464 108.952 82.384 109.008 81.404C110.124 81.804 111.968 83.328 112.256 83.924C112.277 83.9707 112.294 84.0188 112.308 84.068C112.096 84.0919 111.887 84.1375 111.684 84.204ZM107.92 83.552C108.32 85.052 108.964 85.28 109.004 85.768C108.028 85.612 106.44 84.664 106.336 83.72C106.306 82.8026 106.613 81.906 107.2 81.2C107.6 81.384 107.576 82.324 107.92 83.552ZM110.72 91.416C110.204 90.944 110.776 90.484 111.04 89.508C111.169 89.0421 111.169 88.5498 111.04 88.084C112.056 88.884 113.58 90.992 113.188 91.616C113.188 91.64 113.152 91.656 113.136 91.68C112.276 91.904 111.084 91.752 110.724 91.416H110.72ZM113.144 88.156C112.064 86.712 111.636 87.212 111.376 86.44C111.327 86.2528 111.333 86.0552 111.395 85.8717C111.457 85.6882 111.571 85.527 111.724 85.408C112.004 85.2953 112.316 85.2861 112.602 85.3821C112.889 85.4781 113.132 85.6731 113.288 85.932C113.816 86.868 114.088 88.572 114.132 89.632C113.88 89.248 113.556 88.7 113.148 88.156H113.144Z" fill="#E0E0E0"/>
<path opacity="0.2" d="M110.584 80.548C109.176 79.748 107.912 79.684 107.008 80.252C106.82 80.368 106.608 80.472 106.352 80.616C106.286 80.6535 106.222 80.6949 106.16 80.74L106.128 80.76C106.041 80.82 105.96 80.8869 105.884 80.96L105.832 81.008C105.763 81.0776 105.697 81.151 105.636 81.228L105.568 81.316C105.516 81.388 105.464 81.464 105.416 81.544L105.344 81.676C105.304 81.752 105.264 81.824 105.228 81.904L105.156 82.092C105.128 82.168 105.1 82.24 105.076 82.316C105.052 82.392 105.036 82.48 105.016 82.564C104.994 82.6335 104.977 82.7043 104.964 82.776C104.944 82.88 104.932 82.992 104.916 83.1L104.892 83.284C104.876 83.46 104.868 83.644 104.868 83.836C104.868 87 107.092 90.848 109.832 92.432C110.004 92.528 110.172 92.616 110.34 92.696C110.44 92.74 110.536 92.776 110.636 92.812C110.701 92.8421 110.768 92.8688 110.836 92.892C110.904 92.916 110.968 92.928 111.036 92.948C111.104 92.968 111.228 93.008 111.32 93.028H111.428C111.548 93.048 111.668 93.068 111.784 93.08H111.808C112.371 93.125 112.933 92.9845 113.408 92.68C113.652 92.54 113.864 92.436 114.136 92.28C115.008 91.756 115.544 90.656 115.544 89.104C115.548 86 113.324 82.132 110.584 80.548ZM109.168 90.084C108.316 89.42 107.124 87.416 106.656 86.292C106.935 86.486 107.225 86.6636 107.524 86.824C108.816 87.492 108.78 86.588 109.308 87.224C109.836 87.86 109.732 89.388 109.308 90.184C109.257 90.1565 109.21 90.1229 109.168 90.084ZM111.684 84.204C111.611 84.2313 111.541 84.2633 111.472 84.3L110.712 84.736C110.551 84.8213 110.419 84.9521 110.332 85.112C109.692 84.464 108.952 82.384 109.008 81.404C110.124 81.804 111.968 83.328 112.256 83.924C112.277 83.9707 112.294 84.0188 112.308 84.068C112.096 84.0919 111.887 84.1375 111.684 84.204ZM107.92 83.552C108.32 85.052 108.964 85.28 109.004 85.768C108.028 85.612 106.44 84.664 106.336 83.72C106.306 82.8026 106.613 81.906 107.2 81.2C107.6 81.384 107.576 82.324 107.92 83.552ZM110.72 91.416C110.204 90.944 110.776 90.484 111.04 89.508C111.169 89.0421 111.169 88.5498 111.04 88.084C112.056 88.884 113.58 90.992 113.188 91.616C113.188 91.64 113.152 91.656 113.136 91.68C112.276 91.904 111.084 91.752 110.724 91.416H110.72ZM113.144 88.156C112.064 86.712 111.636 87.212 111.376 86.44C111.327 86.2528 111.333 86.0552 111.395 85.8717C111.457 85.6882 111.571 85.527 111.724 85.408C112.004 85.2953 112.316 85.2861 112.602 85.3821C112.889 85.4781 113.132 85.6731 113.288 85.932C113.816 86.868 114.088 88.572 114.132 89.632C113.88 89.248 113.556 88.7 113.148 88.156H113.144Z" fill="black"/>
<path d="M109.82 80.98C107.08 79.4 104.856 80.684 104.856 83.848C104.856 87.012 107.08 90.86 109.82 92.444C112.56 94.028 114.78 92.74 114.78 89.576C114.78 86.412 112.56 82.564 109.82 80.98ZM108.592 81.32C109.572 81.32 111.928 83.244 112.256 83.924C112.584 84.604 111.716 84.356 110.928 84.636C109.92 84.992 110.4 85.964 109.808 85.72C108.944 85.36 107.6 81.304 108.592 81.32ZM107.112 81.168C107.616 81.252 107.556 82.244 107.912 83.568C108.372 85.224 109.092 85.328 108.988 85.968C108.84 86.876 105.716 85.52 105.564 84.184C105.412 82.848 106.608 81.08 107.112 81.168ZM108.4 90.512C107.328 89.68 105.7 86.688 105.688 86.064C105.676 85.44 106.488 86.3 107.516 86.824C108.808 87.492 108.772 86.588 109.3 87.224C110.08 88.132 109.48 91.352 108.4 90.512ZM113.2 91.6C112.688 92.4 110.5 92.304 110 91.832C109.5 91.36 110.06 90.9 110.324 89.92C110.66 88.676 109.924 88.008 110.348 87.776C110.936 87.456 113.692 90.8 113.2 91.6ZM112.4 88.568C111.324 87.128 110.896 87.624 110.636 86.852C110.236 85.728 112.548 84.576 113.304 85.916C114.06 87.256 114.336 90.18 114.032 90.512C113.728 90.844 113.24 89.716 112.4 88.584V88.568Z" fill="#E0E0E0"/>
<path d="M109.82 88.464C110.656 88.948 111.336 88.556 111.336 87.588C111.307 87.0617 111.155 86.5495 110.892 86.0929C110.629 85.6363 110.261 85.2482 109.82 84.96C108.98 84.476 108.3 84.868 108.3 85.836C108.329 86.3628 108.481 86.8753 108.745 87.332C109.01 87.7886 109.378 88.1765 109.82 88.464Z" fill="#455A64"/>
<path d="M106.8 82.744L100.72 95.144C100.652 95.3235 100.633 95.5179 100.666 95.7071C100.698 95.8963 100.78 96.0734 100.904 96.22C101.225 96.6475 101.642 96.9931 102.122 97.2287C102.601 97.4644 103.13 97.5834 103.664 97.576C103.856 97.5829 104.046 97.5382 104.215 97.4468C104.384 97.3554 104.525 97.2204 104.624 97.056L110.704 84.656L106.8 82.744Z" fill="#263238"/>
<path d="M106.992 83.82C107.313 84.2467 107.731 84.5915 108.21 84.8265C108.69 85.0614 109.218 85.1798 109.752 85.172C110.728 85.108 111.076 84.372 110.532 83.572C110.21 83.1457 109.793 82.8012 109.314 82.5663C108.834 82.3314 108.306 82.2128 107.772 82.22C106.8 82.292 106.444 83.008 106.992 83.82Z" fill="#37474F"/>
<path d="M82.9321 60.4C79.4641 60.636 76.6841 63.256 76.2681 67.2C75.8681 70.8 76.9481 82.128 77.8201 86.664C78.8961 92.264 79.8641 93.212 82.1841 93.536C83.9361 93.78 98.0921 94.848 100.16 94.688C102.228 94.528 105.14 95.532 106.56 94.688C107.98 93.844 108.468 92.1 109.46 90.656C110.452 89.212 109.508 87.056 109.508 87.056L108.8 88.448C108.464 88.824 106.78 89.104 105.828 88.08C105.554 87.8092 105.353 87.4737 105.243 87.1045C105.133 86.7353 105.119 86.3444 105.2 85.968L105.816 84.708C104.776 84.448 104.288 84.64 103.288 85.628C102.288 86.616 102.52 87.588 100.088 88.288C97.9561 88.904 85.6401 86.168 85.6401 86.168L84.4001 71.728C84.4001 71.728 83.7241 61.484 82.9321 60.4Z" fill="#B16668"/>
<path d="M83.332 60.324C83.332 60.324 78.864 60.644 77.368 63.244C75.32 66.816 76.088 72.888 76.352 76.764C76.616 80.64 76.8 82.024 76.8 82.024C76.8 82.024 78.3 83.108 81.312 82.744C84.324 82.38 85.472 80.8 85.472 80.8L84.4 67.312C84.4 67.312 84.888 61.976 83.332 60.324Z" fill="#6F4A8E"/>
<path opacity="0.5" d="M83.332 60.324C83.332 60.324 78.864 60.644 77.368 63.244C75.32 66.816 76.088 72.888 76.352 76.764C76.616 80.64 76.8 82.024 76.8 82.024C76.8 82.024 78.3 83.108 81.312 82.744C84.324 82.38 85.472 80.8 85.472 80.8L84.4 67.312C84.4 67.312 84.888 61.976 83.332 60.324Z" fill="black"/>
<path d="M164.488 134.42C164.431 134.419 164.378 134.396 164.338 134.355C164.298 134.315 164.276 134.261 164.276 134.204V38.884C163.706 41.0559 162.642 43.0668 161.167 44.7598C159.692 46.4528 157.846 47.7821 155.772 48.644C148.54 51.764 143.712 49.444 142.372 48.644C142.444 50.244 142.288 55.844 137.08 60.564C132.048 65.132 125.552 64.788 123.856 64.604C124.604 66.152 126.924 72.204 121.076 78.452C116.156 83.696 110.332 83.376 110.276 83.372C110.248 83.3705 110.22 83.3633 110.195 83.351C110.169 83.3386 110.147 83.3213 110.128 83.3001C110.109 83.2788 110.095 83.2541 110.086 83.2273C110.077 83.2005 110.074 83.1722 110.076 83.144C110.077 83.1156 110.084 83.0877 110.096 83.062C110.108 83.0363 110.125 83.0134 110.147 82.9946C110.168 82.9759 110.193 82.9617 110.22 82.953C110.247 82.9443 110.276 82.9412 110.304 82.944C110.36 82.944 115.988 83.248 120.764 78.144C127.288 71.196 123.336 64.504 123.296 64.436C123.274 64.4015 123.262 64.3612 123.262 64.32C123.262 64.2788 123.274 64.2385 123.296 64.204C123.318 64.169 123.35 64.1415 123.388 64.1251C123.426 64.1086 123.468 64.1041 123.508 64.112C123.584 64.112 131.14 65.36 136.784 60.232C142.736 54.824 141.916 48.304 141.908 48.232C141.903 48.1899 141.91 48.1471 141.929 48.109C141.947 48.071 141.977 48.0393 142.014 48.018C142.05 47.9966 142.093 47.9866 142.135 47.9891C142.177 47.9916 142.218 48.0065 142.252 48.032C142.3 48.072 147.304 51.8 155.596 48.224C157.975 47.2274 160.039 45.6032 161.567 43.5249C163.095 41.4466 164.03 38.9922 164.272 36.424C164.271 36.3957 164.276 36.3674 164.286 36.3411C164.297 36.3147 164.313 36.2909 164.333 36.2713C164.354 36.2516 164.378 36.2365 164.405 36.227C164.431 36.2174 164.46 36.2137 164.488 36.216C164.544 36.216 164.598 36.2383 164.638 36.2781C164.678 36.3178 164.7 36.3718 164.7 36.428V134.204C164.7 134.261 164.678 134.315 164.638 134.355C164.599 134.396 164.545 134.419 164.488 134.42Z" fill="#455A64"/>
<path d="M108.044 83C108.044 83 116.62 65.672 134.076 52.3C151.532 38.928 165.312 35.304 165.492 35.9C165.672 36.496 151.4 40.508 134.956 53.472C126.88 59.836 118.668 68.424 109.704 84.2C109.704 84.2 109.304 84.624 108.54 84.096C107.632 83.436 108.044 83 108.044 83Z" fill="#6F4A8E"/>
<path opacity="0.2" d="M151.88 42.352C141.28 47.488 124.248 57.292 109.456 82.508C109.456 82.508 108.708 83.808 107.98 83.428C108.09 83.7001 108.287 83.928 108.54 84.076C109.296 84.604 109.704 84.18 109.704 84.18C118.668 68.404 126.88 59.816 134.956 53.452C140.264 49.2674 145.927 45.5534 151.88 42.352Z" fill="black"/>
<path d="M80.4 98.888H63.308L64.804 111.168C64.896 112.136 65.58 113.084 66.856 113.824C69.612 115.424 74.08 115.424 76.832 113.824C78.112 113.084 78.796 112.136 78.888 111.168L80.4 98.888Z" fill="#6F4A8E"/>
<path opacity="0.1" d="M80.4 98.888H63.308L64.804 111.168C64.896 112.136 65.58 113.084 66.856 113.824C69.612 115.424 74.08 115.424 76.832 113.824C78.112 113.084 78.796 112.136 78.888 111.168L80.4 98.888Z" fill="black"/>
<path d="M71.844 103.552C76.5671 103.552 80.396 101.342 80.396 98.616C80.396 95.8899 76.5671 93.68 71.844 93.68C67.1209 93.68 63.292 95.8899 63.292 98.616C63.292 101.342 67.1209 103.552 71.844 103.552Z" fill="#6F4A8E"/>
<path d="M71.844 102.848C69.8622 102.892 67.9022 102.427 66.152 101.496C64.764 100.696 64 99.672 64 98.616C64 97.56 64.764 96.536 66.152 95.732C67.9185 94.8431 69.8685 94.3802 71.846 94.3802C73.8235 94.3802 75.7735 94.8431 77.54 95.732C78.928 96.532 79.692 97.556 79.692 98.616C79.692 99.676 78.928 100.696 77.54 101.496C75.7885 102.427 73.8271 102.893 71.844 102.848Z" fill="#6F4A8E"/>
<path opacity="0.1" d="M71.844 102.848C69.8622 102.892 67.9022 102.427 66.152 101.496C64.764 100.696 64 99.672 64 98.616C64 97.56 64.764 96.536 66.152 95.732C67.9185 94.8431 69.8685 94.3802 71.846 94.3802C73.8235 94.3802 75.7735 94.8431 77.54 95.732C78.928 96.532 79.692 97.556 79.692 98.616C79.692 99.676 78.928 100.696 77.54 101.496C75.7885 102.427 73.8271 102.893 71.844 102.848Z" fill="black"/>
<path d="M71.844 99.908C69.8622 99.8637 67.9022 100.329 66.152 101.26L65.964 101.38C66.028 101.416 66.084 101.46 66.152 101.496C67.9185 102.385 69.8685 102.848 71.846 102.848C73.8235 102.848 75.7735 102.385 77.54 101.496C77.608 101.46 77.664 101.416 77.728 101.38L77.54 101.26C75.7885 100.329 73.8271 99.8632 71.844 99.908Z" fill="#F28F8F"/>
<path d="M63.44 99.956L62.932 100.54C62.4926 101.047 62.1707 101.644 61.9893 102.29C61.8079 102.935 61.7715 103.613 61.8827 104.274C61.994 104.936 62.2501 105.564 62.6327 106.115C63.0154 106.666 63.5151 107.125 64.096 107.46C65.8799 108.49 67.9662 108.867 69.9977 108.528C72.0292 108.188 73.8796 107.153 75.232 105.6L76.98 103.6C77.0522 103.516 77.1546 103.464 77.2649 103.456C77.3752 103.448 77.4842 103.484 77.568 103.556C77.6518 103.628 77.7036 103.731 77.7118 103.841C77.7201 103.951 77.6842 104.06 77.612 104.144L75.86 106.164C74.3836 107.867 72.3608 109.003 70.1385 109.377C67.9162 109.751 65.6328 109.341 63.68 108.216C62.988 107.82 62.3925 107.276 61.9366 106.622C61.4808 105.968 61.176 105.22 61.0444 104.434C60.9127 103.648 60.9574 102.842 61.1752 102.075C61.3931 101.308 61.7786 100.6 62.304 100L63.304 98.844L63.44 99.956Z" fill="#E0E0E0"/>
</svg>
