<svg width="15" height="16" viewBox="0 0 15 16" fill="none" xmlns="http://www.w3.org/2000/svg">
<path d="M14.9921 8.14968C14.9921 7.49417 14.9411 7.01582 14.8306 6.51976H7.64941V9.47841H11.8646C11.7797 10.2137 11.3208 11.321 10.3009 12.065L10.2866 12.1641L12.5572 13.9976L12.7145 14.0139C14.1592 12.6231 14.9921 10.5769 14.9921 8.14968Z" fill="#6F4A8E"/>
<path d="M7.64939 15.9451C9.71449 15.9451 11.4482 15.2364 12.7145 14.0139L10.3009 12.065C9.65503 12.5345 8.78816 12.8623 7.64939 12.8623C5.62676 12.8623 3.91008 11.4716 3.29813 9.54932L3.20844 9.55726L0.847465 11.4618L0.816589 11.5513C2.07435 14.1556 4.6579 15.9451 7.64939 15.9451Z" fill="#6F4A8E"/>
<path d="M3.29817 9.5493C3.1367 9.05324 3.04325 8.5217 3.04325 7.97251C3.04325 7.42326 3.1367 6.89177 3.28967 6.39571L3.2854 6.29006L0.894842 4.35492L0.816627 4.3937C0.298243 5.47443 0.000793457 6.68805 0.000793457 7.97251C0.000793457 9.25697 0.298243 10.4705 0.816627 11.5513L3.29817 9.5493Z" fill="#6F4A8E"/>
<path d="M7.64938 3.08269C9.0856 3.08269 10.0544 3.72934 10.6068 4.26974L12.7654 2.07286C11.4397 0.788397 9.71448 0 7.64938 0C4.65789 0 2.07435 1.78937 0.816589 4.39371L3.28963 6.39573C3.91008 4.47347 5.62676 3.08269 7.64938 3.08269Z" fill="#6F4A8E"/>
</svg>
