<svg width="96" height="22" viewBox="0 0 96 22" fill="none" xmlns="http://www.w3.org/2000/svg">
<path d="M51 0H0V21.75H51V0Z" fill="#2EC1AC"/>
<path d="M11.9573 8.14071C11.9573 8.7725 11.824 9.35249 11.5573 9.8807C11.2906 10.3985 10.8811 10.818 10.3287 11.1391C9.77635 11.4602 9.09063 11.6207 8.2716 11.6207H6.75731V15.5357H4.31445V4.62964H8.2716C9.0716 4.62964 9.74778 4.77983 10.3002 5.08017C10.8526 5.38052 11.2668 5.79482 11.543 6.32303C11.8192 6.85124 11.9573 7.45714 11.9573 8.14071ZM8.08588 9.50785C8.55256 9.50785 8.90017 9.38873 9.12874 9.15053C9.35731 8.91233 9.4716 8.57571 9.4716 8.14071C9.4716 7.70571 9.35731 7.36909 9.12874 7.13089C8.90017 6.89269 8.55256 6.77357 8.08588 6.77357H6.75731V9.50785H8.08588ZM12.7433 11.1857C12.7433 10.295 12.8957 9.51301 13.2005 8.83981C13.5148 8.16661 13.9386 7.64873 14.4719 7.28624C15.0053 6.92376 15.6005 6.74249 16.2576 6.74249C16.8196 6.74249 17.31 6.86678 17.7291 7.11535C18.1576 7.36392 18.4862 7.69017 18.7148 8.0941V6.86678H21.1576V15.5357H18.7148V14.3084C18.4767 14.7123 18.1433 15.0386 17.7148 15.2871C17.2957 15.5357 16.8053 15.66 16.2434 15.66C15.5957 15.66 15.0053 15.4787 14.4719 15.1162C13.9386 14.7434 13.5148 14.2203 13.2005 13.5471C12.8957 12.8636 12.7433 12.0764 12.7433 11.1857ZM18.7148 11.2012C18.7148 10.5384 18.5434 10.0154 18.2005 9.63213C17.8672 9.24891 17.4576 9.05731 16.9719 9.05731C16.4862 9.05731 16.0719 9.24891 15.7291 9.63213C15.3957 10.005 15.2291 10.5228 15.2291 11.1857C15.2291 11.8486 15.3957 12.3768 15.7291 12.7703C16.0719 13.1536 16.4862 13.3452 16.9719 13.3452C17.4576 13.3452 17.8672 13.1536 18.2005 12.7703C18.5434 12.3871 18.7148 11.8641 18.7148 11.2012ZM27.7821 6.77357C28.7154 6.77357 29.4583 7.10498 30.0107 7.76785C30.5726 8.42035 30.8535 9.32142 30.8535 10.4711V15.5357H28.425V10.8284C28.425 10.2484 28.2869 9.79786 28.0107 9.47678C27.7345 9.15569 27.363 8.99517 26.8964 8.99517C26.4297 8.99517 26.0583 9.15569 25.7821 9.47678C25.5059 9.79786 25.3678 10.2484 25.3678 10.8284V15.5357H22.925V6.86678H25.3678V8.01642C25.6154 7.63319 25.9487 7.33285 26.3678 7.11535C26.7869 6.88748 27.2583 6.77357 27.7821 6.77357ZM40.0652 11.0614C40.0652 11.31 40.0513 11.5689 40.0227 11.8382H34.4941C34.532 12.3768 34.6891 12.791 34.9655 13.0811C35.2512 13.3607 35.5987 13.5005 36.0084 13.5005C36.6177 13.5005 37.0416 13.2209 37.2798 12.6616H39.8798C39.7463 13.2312 39.5034 13.7439 39.1512 14.1996C38.8084 14.6553 38.3748 15.0127 37.8512 15.2716C37.3273 15.5305 36.7416 15.66 36.0941 15.66C35.313 15.66 34.6177 15.4787 34.0084 15.1162C33.3987 14.7537 32.9227 14.2359 32.5796 13.5627C32.2368 12.8895 32.0654 12.1023 32.0654 11.2012C32.0654 10.3002 32.232 9.51301 32.5654 8.83981C32.9084 8.16661 33.3845 7.64873 33.9941 7.28624C34.6034 6.92376 35.3034 6.74249 36.0941 6.74249C36.8655 6.74249 37.5512 6.91855 38.1512 7.27071C38.7512 7.62286 39.2177 8.12517 39.5512 8.77767C39.8941 9.43017 40.0652 10.1914 40.0652 11.0614ZM37.5655 10.3623C37.5655 9.90661 37.4227 9.54409 37.137 9.27481C36.8512 9.00554 36.4941 8.87088 36.0655 8.87088C35.6559 8.87088 35.3084 9.00034 35.0227 9.25928C34.7462 9.51822 34.5748 9.88587 34.5084 10.3623H37.5655ZM46.2113 6.77357C47.1445 6.77357 47.8873 7.10498 48.4398 7.76785C49.0016 8.42035 49.2827 9.32142 49.2827 10.4711V15.5357H46.8541V10.8284C46.8541 10.2484 46.7159 9.79786 46.4398 9.47678C46.1638 9.15569 45.7923 8.99517 45.3255 8.99517C44.8588 8.99517 44.4873 9.15569 44.2113 9.47678C43.9352 9.79786 43.797 10.2484 43.797 10.8284V15.5357H41.3541V6.86678H43.797V8.01642C44.0445 7.63319 44.378 7.33285 44.797 7.11535C45.2159 6.88748 45.6873 6.77357 46.2113 6.77357Z" fill="white"/>
<path d="M59.1715 7.79892C59.1715 8.73106 58.8904 9.48194 58.3287 10.0516C57.7669 10.6213 56.924 10.9061 55.8001 10.9061H53.7858V15.5357H52.7858V4.67624H55.8001C56.9144 4.67624 57.7526 4.96105 58.3144 5.5307C58.8858 6.10036 59.1715 6.85641 59.1715 7.79892ZM55.8001 9.97392C57.3619 9.97392 58.1429 9.24891 58.1429 7.79892C58.1429 7.07391 57.9572 6.52499 57.5858 6.15213C57.2144 5.77928 56.619 5.59285 55.8001 5.59285H53.7858V9.97392H55.8001ZM60.3922 11.2789C60.3922 10.4089 60.5494 9.64767 60.8636 8.99517C61.1876 8.3323 61.6304 7.82483 62.1922 7.47267C62.7636 7.11018 63.4065 6.92892 64.1208 6.92892C64.8636 6.92892 65.5019 7.11535 66.0351 7.48821C66.5779 7.86106 66.9683 8.3375 67.2065 8.91749V7.0532H68.2065V15.5357H67.2065V13.6559C66.959 14.2359 66.5636 14.7175 66.0208 15.1007C65.4876 15.4736 64.8494 15.66 64.1065 15.66C63.4019 15.66 62.7636 15.4787 62.1922 15.1162C61.6304 14.7538 61.1876 14.2411 60.8636 13.5782C60.5494 12.9153 60.3922 12.1489 60.3922 11.2789ZM67.2065 11.2945C67.2065 10.6109 67.0779 10.0102 66.8208 9.49231C66.5636 8.97447 66.2111 8.57571 65.7636 8.29606C65.3254 8.01642 64.8397 7.8766 64.3065 7.8766C63.754 7.8766 63.259 8.01125 62.8208 8.28053C62.3826 8.5498 62.0351 8.9434 61.7779 9.46124C61.5304 9.96876 61.4065 10.5746 61.4065 11.2789C61.4065 11.9729 61.5304 12.5839 61.7779 13.1121C62.0351 13.63 62.3826 14.0287 62.8208 14.3084C63.259 14.5777 63.754 14.7123 64.3065 14.7123C64.8397 14.7123 65.3254 14.5725 65.7636 14.2929C66.2111 14.0132 66.5636 13.6144 66.8208 13.0966C67.0779 12.5788 67.2065 11.978 67.2065 11.2945ZM74.1465 6.89785C75.0801 6.89785 75.8419 7.21373 76.4322 7.84553C77.0229 8.46696 77.3179 9.37319 77.3179 10.5643V15.5357H76.3322V10.6886C76.3322 9.76679 76.1179 9.06248 75.6894 8.57571C75.2704 8.08893 74.6944 7.84553 73.9608 7.84553C73.2086 7.84553 72.6086 8.10447 72.1608 8.62231C71.7133 9.14016 71.4894 9.90141 71.4894 10.9061V15.5357H70.4894V7.0532H71.4894V8.49803C71.7372 7.98018 72.0944 7.58659 72.5608 7.31731C73.0276 7.03767 73.5561 6.89785 74.1465 6.89785ZM86.5868 10.8595C86.5868 11.2323 86.5772 11.5171 86.5583 11.7139H80.0869C80.1154 12.3561 80.2583 12.905 80.5154 13.3607C80.7726 13.8164 81.1104 14.1634 81.5297 14.4016C81.9486 14.6295 82.4058 14.7434 82.9011 14.7434C83.5486 14.7434 84.0915 14.5725 84.5297 14.2307C84.9772 13.8889 85.2726 13.428 85.4154 12.848H86.4726C86.2818 13.6766 85.8726 14.355 85.244 14.8832C84.6247 15.4011 83.844 15.66 82.9011 15.66C82.1676 15.66 81.5104 15.4839 80.9297 15.1318C80.3486 14.7693 79.8915 14.2618 79.5583 13.6093C79.2344 12.9464 79.0726 12.1748 79.0726 11.2945C79.0726 10.4141 79.2344 9.64251 79.5583 8.97963C79.8818 8.31676 80.3344 7.80929 80.9154 7.45713C81.4961 7.10498 82.1583 6.92892 82.9011 6.92892C83.644 6.92892 84.2915 7.10498 84.844 7.45713C85.4058 7.80929 85.8344 8.28569 86.1297 8.88642C86.4344 9.47678 86.5868 10.1344 86.5868 10.8595ZM85.5726 10.8284C85.5819 10.1966 85.4629 9.65804 85.2154 9.21267C84.9772 8.7673 84.6486 8.43072 84.2297 8.20285C83.8104 7.97498 83.3533 7.86106 82.8583 7.86106C82.1154 7.86106 81.4818 8.12 80.9583 8.63785C80.4343 9.15569 80.144 9.88587 80.0869 10.8284H85.5726ZM92.0736 6.89785C93.0068 6.89785 93.7686 7.21373 94.3593 7.84553C94.9497 8.46696 95.2451 9.37319 95.2451 10.5643V15.5357H94.2593V10.6886C94.2593 9.76679 94.0451 9.06248 93.6165 8.57571C93.1972 8.08893 92.6211 7.84553 91.8879 7.84553C91.1354 7.84553 90.5354 8.10447 90.0879 8.62231C89.6401 9.14016 89.4165 9.90141 89.4165 10.9061V15.5357H88.4165V7.0532H89.4165V8.49803C89.664 7.98018 90.0211 7.58659 90.4879 7.31731C90.9543 7.03767 91.4829 6.89785 92.0736 6.89785Z" fill="white"/>
</svg>
