<svg width="53" height="53" viewBox="0 0 53 53" fill="none" xmlns="http://www.w3.org/2000/svg">
<path d="M24.275 52.7485C21.7821 52.5598 18.1686 51.717 16.4059 50.9118C14.4795 50.0312 13.0819 49.3142 12.0621 48.6474C4.43215 43.6657 -0.0375345 35.4006 0.000237493 26.3429C0.0128282 21.1096 1.5363 16.0649 4.38179 11.8129C5.4394 10.2403 6.10671 9.42264 7.56723 7.92561C9.80836 5.64861 11.9614 4.08867 14.832 2.6797C18.6344 0.830426 22.2857 -0.0124414 26.5414 0.000138691C36.3747 0.0252989 45.1755 5.32153 49.8844 14.0521C51.5338 17.1091 52.5033 20.4931 52.9314 24.7075C53.2336 27.7519 52.5159 32.3562 51.2065 35.7402C49.7963 39.401 47.8699 42.3699 45.1252 45.0873C42.7833 47.4146 40.3785 49.0877 37.4952 50.4086C35.8459 51.1509 33.2018 52.0566 33.0004 51.9308C32.6226 51.6918 31.4391 49.6035 30.9481 48.2952C30.6207 47.4397 30.6081 47.4649 31.4769 46.3327C32.9626 44.3953 33.3907 41.829 32.6352 39.2627L32.3456 38.294L32.9626 37.7279C34.2846 36.5328 36.3243 35.5893 37.8604 35.4383C39.3964 35.2999 41.1088 35.9415 42.2167 37.0611C42.9092 37.7656 43.0225 37.7405 42.5189 37.0108C42.1412 36.4825 41.348 35.7906 40.731 35.4761C40.026 35.1112 38.4521 34.7716 37.5078 34.7716C36.0851 34.7716 34.3979 35.2873 33.5544 35.9541C32.2449 37.0234 31.8798 37.2876 31.7917 37.2876C31.7413 37.2876 31.3888 36.9731 31.011 36.5831C30.6333 36.1931 29.9786 35.6522 29.5757 35.388C28.6818 34.7967 26.8813 34.1929 25.66 34.0797C22.8901 33.8155 21.5177 33.6142 20.5734 33.3249C16.8843 32.2304 13.4722 29.4376 11.3948 25.8019C10.6519 24.5062 9.80836 22.0531 9.59432 20.5812C9.36769 18.9961 9.50619 15.3605 9.84614 14.0144C10.589 11.0958 12.3391 8.24011 14.895 5.79957C15.4616 5.24604 15.9022 4.78058 15.8771 4.75542C15.8015 4.69252 14.1647 5.53539 13.2582 6.10149C8.38562 9.17104 4.3692 14.4798 3.04718 19.6C2.56873 21.4366 2.43024 22.594 2.35469 25.2107C2.26656 28.167 2.43024 29.8402 3.05977 32.331C3.61376 34.5577 5.22536 37.7656 6.89992 39.9923C9.66987 43.6531 13.9759 46.7352 18.433 48.2071C20.7371 48.9745 22.0213 49.1381 25.1942 49.0877L27.8382 49.05L28.858 48.5216C29.412 48.2197 29.9157 47.9807 29.9786 47.9807C30.029 47.9807 30.1926 48.3455 30.3563 48.7858C30.52 49.2261 30.9984 50.1696 31.4391 50.8867L32.2449 52.195L31.1495 52.4089C30.0541 52.6227 26.9694 52.8995 26.0377 52.8618C25.7607 52.8618 24.9675 52.8114 24.275 52.7485ZM40.0637 45.0747C40.3911 44.7476 40.454 44.5966 40.454 44.0557C40.454 43.5022 40.4037 43.3764 40.026 42.999C39.686 42.6593 39.4971 42.5712 39.0817 42.5712C38.1248 42.5712 37.5582 43.0996 37.5582 44.0179C37.5582 44.9615 38.0618 45.4521 39.0313 45.4647C39.5853 45.4647 39.7364 45.4143 40.0637 45.0747ZM33.1892 33.3752C33.6173 33.1739 33.9069 32.6204 33.9069 31.9662C33.9069 31.5007 33.8439 31.3246 33.5166 31.0101C33.1766 30.6704 33.0507 30.6201 32.4338 30.6201C31.8168 30.6201 31.7035 30.6704 31.3762 31.0101C31.074 31.3372 31.011 31.5133 31.011 32.0291C31.011 32.5826 31.0614 32.7084 31.4391 33.0858C31.7791 33.4255 31.9679 33.5136 32.3834 33.5136C32.6604 33.5136 33.0255 33.4507 33.1892 33.3752ZM24.4639 27.7519C24.9675 27.5003 25.2697 27.2487 25.5719 26.7958C25.937 26.2548 25.9748 26.0913 25.9748 25.2862C25.9748 24.481 25.937 24.3301 25.5719 23.7765C24.9549 22.8582 24.2876 22.5437 23.0663 22.594C22.1724 22.6318 22.0717 22.6569 21.5177 23.1098C20.8 23.7011 20.5608 24.242 20.5608 25.2862C20.5608 26.1793 20.7119 26.5945 21.2533 27.1983C22.0717 28.1167 23.293 28.3305 24.4639 27.7519ZM37.6211 24.2043C38.4269 23.4369 38.6284 22.5563 38.2381 21.6128C37.7219 20.3799 36.3369 19.8516 35.1282 20.4428C34.2846 20.8454 33.9824 21.3234 33.9321 22.3298C33.8691 23.3237 34.1209 23.8646 34.9016 24.4056C35.3045 24.6823 35.4555 24.7201 36.2613 24.6823C37.1049 24.6446 37.2056 24.6068 37.6211 24.2043ZM30.6459 21.1976C31.1747 20.6693 31.1495 20.0403 30.583 19.4741C30.2556 19.1471 30.0541 19.0464 29.689 19.0464C28.6314 19.0464 28.1026 20.3296 28.8203 21.1725C29.0973 21.4995 29.2358 21.5624 29.7142 21.5624C30.1675 21.5624 30.3437 21.487 30.6459 21.1976ZM11.8984 15.4234C14.2655 11.9512 17.6146 9.6365 21.4421 8.85654C22.6005 8.61751 23.0412 8.59235 24.9675 8.64268C26.8309 8.693 27.3472 8.7559 28.3418 9.03266C28.9839 9.20878 29.6764 9.4478 29.8779 9.54844C30.2808 9.74972 30.6333 9.80005 30.6333 9.6365C30.6333 9.4478 27.9641 8.13947 26.8561 7.78723C25.9244 7.47272 25.5341 7.4224 23.7714 7.37208C21.5429 7.30918 20.2208 7.4853 18.6974 8.03883C18.2441 8.20237 17.8412 8.31559 17.816 8.29043C17.6649 8.13947 20.3593 6.8563 21.9332 6.34051C24.1239 5.63603 27.5108 5.52281 30.3563 6.08891C31.1495 6.23987 31.8168 6.32793 31.8546 6.29019C31.9428 6.20213 32.0057 6.23987 31.1369 5.81215C30.7592 5.62345 30.0164 5.32153 29.5002 5.1454C27.5864 4.49124 27.1961 4.44092 24.6653 4.44092C21.8828 4.44092 21.845 4.3906 24.061 3.66095C26.0755 2.9942 27.1961 2.8055 29.5002 2.73002C31.9679 2.64196 34.0454 2.83066 35.7325 3.25839C37.1175 3.62321 37.3441 3.63579 36.9916 3.37161C36.211 2.76776 33.4914 1.72361 31.7035 1.35879C30.4067 1.09461 27.2716 0.993967 25.9118 1.17009C23.57 1.48459 19.9187 2.9942 17.8538 4.50382C14.3536 7.07016 11.4829 11.5864 10.6771 15.7882C10.5764 16.3543 10.4883 17.0462 10.4883 17.3355V17.8513L10.9919 16.933C11.2689 16.4172 11.6844 15.7379 11.8984 15.4234ZM25.723 16.9581C26.428 16.5304 26.6799 15.5995 26.277 14.9076C26.0251 14.4924 25.4334 14.1402 24.9675 14.1402C24.5017 14.1402 23.8847 14.505 23.721 14.8698C23.5448 15.2472 23.5448 16.0649 23.721 16.4423C24.0232 17.0965 25.0305 17.3607 25.723 16.9581Z" fill="#FFFFFF"/>
<path d="M27.2716 47.0372C27.6493 46.6975 28.2411 46.6094 28.2411 46.8862C28.2411 47.1881 27.9515 47.3517 27.4353 47.3517L26.9191 47.3391L27.2716 47.0372Z" fill="#FFFFFF"/>
<path d="M27.2716 36.5705C27.1835 36.5453 27.1079 36.407 27.1079 36.2686C27.1079 36.0924 27.196 36.0295 27.4604 36.0295C27.8256 36.0295 28.367 36.3315 28.367 36.5453C28.367 36.6586 27.5486 36.6837 27.2716 36.5705Z" fill="#FFFFFF"/>
</svg>
