<svg width="107" height="23" viewBox="0 0 107 23" fill="none" xmlns="http://www.w3.org/2000/svg">
<path fill-rule="evenodd" clip-rule="evenodd" d="M0 0H56V22.9503H0V0ZM10.7812 10.426C11.082 9.86862 11.2324 9.25663 11.2324 8.58996C11.2324 7.86867 11.0766 7.22934 10.7651 6.67197C10.4536 6.11461 9.98622 5.67745 9.36309 5.36053C8.73995 5.04361 7.97719 4.88513 7.07474 4.88513H2.61086V16.3931H5.36654V12.262H7.07474C7.99866 12.262 8.77218 12.0926 9.39532 11.7538C10.0184 11.415 10.4804 10.9724 10.7812 10.426ZM8.04165 9.65551C7.7838 9.90686 7.39168 10.0325 6.86524 10.0325H5.36654V7.14738H6.86524C7.39168 7.14738 7.7838 7.27306 8.04165 7.52441C8.29949 7.77576 8.42841 8.13096 8.42841 8.58996C8.42841 9.04897 8.29949 9.40417 8.04165 9.65551ZM12.6348 9.32765C12.291 10.038 12.1191 10.8631 12.1191 11.803C12.1191 12.7429 12.291 13.5734 12.6348 14.2947C12.9893 15.0051 13.4674 15.557 14.0691 15.9504C14.6707 16.3329 15.3368 16.5242 16.0673 16.5242C16.7012 16.5242 17.2545 16.3931 17.7272 16.1308C18.2106 15.8685 18.5867 15.5242 18.8552 15.098V16.3931H21.6109V7.24574H18.8552V8.54079C18.5974 8.11456 18.2268 7.77031 17.7433 7.50802C17.2706 7.24574 16.7173 7.11459 16.0834 7.11459C15.3422 7.11459 14.6707 7.30585 14.0691 7.68835C13.4674 8.07083 12.9893 8.61729 12.6348 9.32765ZM18.2751 10.1637C18.6619 10.5681 18.8552 11.1199 18.8552 11.8194C18.8552 12.5188 18.6619 13.0707 18.2751 13.4751C17.8991 13.8795 17.4371 14.0816 16.8892 14.0816C16.3413 14.0816 15.874 13.8795 15.4872 13.4751C15.1112 13.0598 14.9232 12.5024 14.9232 11.803C14.9232 11.1035 15.1112 10.5571 15.4872 10.1637C15.874 9.75932 16.3413 9.55715 16.8892 9.55715C17.4371 9.55715 17.8991 9.75932 18.2751 10.1637ZM31.5977 8.19653C30.9745 7.49708 30.1365 7.14738 29.0837 7.14738C28.4928 7.14738 27.961 7.26758 27.4883 7.50802C27.0156 7.73753 26.6396 8.05444 26.3603 8.45882V7.24574H23.6046V16.3931H26.3603V11.426C26.3603 10.814 26.516 10.3386 26.8276 9.99976C27.1391 9.66096 27.5581 9.49158 28.0846 9.49158C28.611 9.49158 29.03 9.66096 29.3415 9.99976C29.6531 10.3386 29.8089 10.814 29.8089 11.426V16.3931H32.5485V11.0489C32.5485 9.83583 32.2315 8.88504 31.5977 8.19653ZM42.8918 12.4915C42.924 12.2074 42.9397 11.9341 42.9397 11.6719C42.9397 10.7538 42.7467 9.95058 42.36 9.26208C41.9837 8.57357 41.4575 8.04354 40.7807 7.67195C40.1039 7.30036 39.3303 7.11459 38.4601 7.11459C37.5681 7.11459 36.7785 7.30585 36.0912 7.68835C35.4035 8.07083 34.8664 8.61729 34.4795 9.32765C34.1035 10.038 33.9155 10.8686 33.9155 11.8194C33.9155 12.7702 34.1088 13.6008 34.4956 14.3111C34.8826 15.0215 35.4196 15.568 36.1073 15.9504C36.7946 16.3329 37.579 16.5242 38.4601 16.5242C39.1905 16.5242 39.8513 16.3876 40.4423 16.1144C41.0329 15.8411 41.522 15.4641 41.9087 14.9833C42.306 14.5024 42.5799 13.9614 42.7306 13.3603H39.7977C39.5289 13.9505 39.0507 14.2456 38.3634 14.2456C37.9013 14.2456 37.5093 14.098 37.187 13.803C36.8752 13.4969 36.6979 13.0598 36.6552 12.4915H42.8918ZM39.6365 9.78665C39.9588 10.0708 40.12 10.4533 40.12 10.9342H36.6713C36.7463 10.4314 36.9397 10.0435 37.2515 9.77026C37.5738 9.49703 37.9658 9.36044 38.4279 9.36044C38.9113 9.36044 39.3142 9.50253 39.6365 9.78665ZM52.3868 8.19653C51.7635 7.49708 50.9256 7.14738 49.8728 7.14738C49.2818 7.14738 48.75 7.26758 48.2774 7.50802C47.8049 7.73753 47.4286 8.05444 47.1494 8.45882V7.24574H44.3937V16.3931H47.1494V11.426C47.1494 10.814 47.3053 10.3386 47.6167 9.99976C47.9281 9.66096 48.3471 9.49158 48.8737 9.49158C49.4003 9.49158 49.8193 9.66096 50.1307 9.99976C50.4421 10.3386 50.598 10.814 50.598 11.426V16.3931H53.3376V11.0489C53.3376 9.83583 53.0205 8.88504 52.3868 8.19653Z" fill="#2EC1AC"/>
<path d="M65.605 8.2293C65.605 9.21288 65.2825 10.0052 64.6379 10.6063C63.9932 11.2074 63.026 11.5079 61.7363 11.5079H59.4249V16.393H58.2773V4.9343H61.7363C63.0149 4.9343 63.9768 5.23482 64.6215 5.83591C65.2772 6.43701 65.605 7.23477 65.605 8.2293ZM61.7363 10.5243C63.5284 10.5243 64.4247 9.7593 64.4247 8.2293C64.4247 7.46428 64.2116 6.88507 63.7854 6.49164C63.3592 6.0982 62.676 5.90149 61.7363 5.90149H59.4249V10.5243H61.7363ZM67.0058 11.9013C67.0058 10.9833 67.1861 10.1801 67.5468 9.49156C67.9185 8.79211 68.4267 8.25663 69.0713 7.88504C69.7271 7.50255 70.4648 7.31129 71.2844 7.31129C72.1369 7.31129 72.8692 7.508 73.4811 7.90144C74.104 8.29487 74.552 8.7976 74.8253 9.4096V7.44243H75.9728V16.393H74.8253V14.4095C74.5413 15.0215 74.0876 15.5297 73.4647 15.934C72.8528 16.3275 72.1205 16.5242 71.268 16.5242C70.4594 16.5242 69.7271 16.3329 69.0713 15.9504C68.4267 15.5679 67.9185 15.027 67.5468 14.3275C67.1861 13.6281 67.0058 12.8194 67.0058 11.9013ZM74.8253 11.9177C74.8253 11.1964 74.6778 10.5626 74.3827 10.0161C74.0876 9.46972 73.6831 9.04895 73.1696 8.75388C72.6668 8.4588 72.1094 8.31126 71.4975 8.31126C70.8635 8.31126 70.2955 8.45335 69.7926 8.73748C69.2898 9.02162 68.891 9.43693 68.596 9.98336C68.3119 10.5189 68.1697 11.1582 68.1697 11.9013C68.1697 12.6336 68.3119 13.2784 68.596 13.8357C68.891 14.3821 69.2898 14.8029 69.7926 15.098C70.2955 15.3821 70.8635 15.5242 71.4975 15.5242C72.1094 15.5242 72.6668 15.3767 73.1696 15.0816C73.6831 14.7865 74.0876 14.3658 74.3827 13.8193C74.6778 13.2729 74.8253 12.639 74.8253 11.9177ZM82.7891 7.2785C83.8603 7.2785 84.7345 7.61181 85.4119 8.27848C86.0898 8.9342 86.4283 9.89045 86.4283 11.1473V16.393H85.2972V11.2784C85.2972 10.3058 85.0513 9.56259 84.5595 9.04895C84.0788 8.53532 83.4177 8.27848 82.576 8.27848C81.7129 8.27848 81.0243 8.55171 80.5104 9.09813C79.9969 9.64455 79.74 10.4478 79.74 11.5079V16.393H78.5924V7.44243H79.74V8.96699C80.0244 8.42057 80.4342 8.00525 80.9694 7.72111C81.5051 7.42604 82.1116 7.2785 82.7891 7.2785ZM97.0645 11.4587C97.0645 11.8522 97.0535 12.1527 97.0318 12.3603H89.6057C89.6385 13.0379 89.8024 13.6172 90.0975 14.098C90.3926 14.5789 90.7803 14.945 91.2614 15.1963C91.7421 15.4368 92.2667 15.557 92.8351 15.557C93.5781 15.557 94.2011 15.3767 94.7039 15.016C95.2174 14.6554 95.5564 14.169 95.7203 13.557H96.9334C96.7145 14.4313 96.2449 15.1472 95.5236 15.7045C94.813 16.251 93.9171 16.5242 92.8351 16.5242C91.9933 16.5242 91.2393 16.3384 90.5729 15.9668C89.9061 15.5843 89.3815 15.0488 88.9992 14.3603C88.6274 13.6609 88.4418 12.8467 88.4418 11.9177C88.4418 10.9888 88.6274 10.1746 88.9992 9.47517C89.3705 8.77572 89.8897 8.24024 90.5565 7.86865C91.2229 7.49706 91.9827 7.31129 92.8351 7.31129C93.6876 7.31129 94.4306 7.49706 95.0646 7.86865C95.7092 8.24024 96.201 8.74293 96.54 9.37681C96.8895 9.99975 97.0645 10.6937 97.0645 11.4587ZM95.9006 11.4259C95.9113 10.7593 95.7748 10.191 95.4908 9.72107C95.2175 9.25112 94.8404 8.89596 94.3597 8.65552C93.8785 8.41507 93.354 8.29487 92.786 8.29487C91.9335 8.29487 91.2065 8.5681 90.6057 9.11452C90.0045 9.66095 89.6713 10.4314 89.6057 11.4259H95.9006ZM103.361 7.2785C104.432 7.2785 105.306 7.61181 105.984 8.27848C106.661 8.9342 107 9.89045 107 11.1473V16.393H105.869V11.2784C105.869 10.3058 105.623 9.56259 105.131 9.04895C104.65 8.53532 103.989 8.27848 103.148 8.27848C102.284 8.27848 101.596 8.55171 101.082 9.09813C100.568 9.64455 100.312 10.4478 100.312 11.5079V16.393H99.1641V7.44243H100.312V8.96699C100.596 8.42057 101.005 8.00525 101.541 7.72111C102.076 7.42604 102.683 7.2785 103.361 7.2785Z" fill="#1EA481" fill-opacity="0.8"/>
</svg>
