<svg width="51" height="51" viewBox="0 0 51 51" fill="none" xmlns="http://www.w3.org/2000/svg">
<path d="M23.359 50.8874C20.9601 50.7054 17.483 49.8922 15.7868 49.1155C13.9331 48.266 12.5883 47.5742 11.6069 46.931C4.2649 42.125 -0.0361181 34.1515 0.000228531 25.4134C0.0123441 20.3648 1.47832 15.4981 4.21644 11.3961C5.23414 9.87904 5.87627 9.09018 7.28167 7.64597C9.43824 5.44931 11.51 3.94441 14.2723 2.58515C17.9312 0.801126 21.4447 -0.0120024 25.5398 0.000133798C35.002 0.0244063 43.4708 5.13377 48.002 13.5563C49.5892 16.5054 50.5221 19.7701 50.934 23.8357C51.2248 26.7727 50.5342 31.2146 49.2741 34.4792C47.9172 38.0109 46.0635 40.875 43.4223 43.4964C41.1688 45.7416 38.8548 47.3558 36.0803 48.6301C34.4932 49.3461 31.9489 50.2199 31.7551 50.0986C31.3916 49.868 30.2527 47.8533 29.7802 46.5912C29.4652 45.7659 29.4531 45.7902 30.2891 44.6979C31.7187 42.8289 32.1307 40.3531 31.4037 37.8774L31.1251 36.9429L31.7187 36.3967C32.9909 35.2438 34.9536 34.3336 36.4317 34.1879C37.9098 34.0544 39.5575 34.6734 40.6236 35.7535C41.29 36.4331 41.399 36.4089 40.9144 35.705C40.551 35.1952 39.7877 34.5278 39.194 34.2243C38.5155 33.8724 37.0011 33.5447 36.0924 33.5447C34.7234 33.5447 33.0999 34.0423 32.2882 34.6855C31.0281 35.7171 30.6768 35.972 30.592 35.972C30.5435 35.972 30.2043 35.6686 29.8408 35.2923C29.4773 34.9161 28.8473 34.3943 28.4596 34.1394C27.5994 33.569 25.8669 32.9864 24.6917 32.8772C22.0263 32.6224 20.7057 32.4282 19.797 32.149C16.2472 31.0932 12.9639 28.3989 10.9648 24.8916C10.25 23.6415 9.43824 21.275 9.23227 19.855C9.01419 18.3259 9.14746 14.8185 9.47458 13.5199C10.1894 10.7043 11.8735 7.94937 14.3329 5.59494C14.8781 5.06095 15.3022 4.61191 15.2779 4.58763C15.2052 4.52695 13.6302 5.34008 12.7579 5.88621C8.06918 8.84746 4.20432 13.969 2.93219 18.9084C2.4718 20.6803 2.33853 21.7968 2.26584 24.3212C2.18103 27.1732 2.33853 28.7873 2.94431 31.1903C3.47739 33.3384 5.02818 36.4331 6.63955 38.5813C9.30497 42.1129 13.4485 45.0863 17.7374 46.5062C19.9545 47.2465 21.1903 47.4043 24.2434 47.3558L26.7877 47.3194L27.7691 46.8096C28.3021 46.5184 28.7868 46.2878 28.8473 46.2878C28.8958 46.2878 29.0533 46.6397 29.2108 47.0645C29.3683 47.4893 29.8287 48.3995 30.2527 49.0912L31.0281 50.3534L29.9741 50.5597C28.92 50.766 25.9517 51.033 25.0552 50.9966C24.7886 50.9966 24.0254 50.9481 23.359 50.8874ZM38.5519 43.4843C38.8669 43.1688 38.9275 43.0231 38.9275 42.5013C38.9275 41.9673 38.879 41.8459 38.5155 41.4818C38.1884 41.1541 38.0067 41.0692 37.6069 41.0692C36.6861 41.0692 36.1409 41.5789 36.1409 42.4649C36.1409 43.3751 36.6255 43.8484 37.5584 43.8605C38.0915 43.8605 38.2369 43.812 38.5519 43.4843ZM31.9368 32.1976C32.3487 32.0034 32.6274 31.4694 32.6274 30.8383C32.6274 30.3893 32.5668 30.2194 32.2518 29.916C31.9247 29.5883 31.8035 29.5398 31.2099 29.5398C30.6162 29.5398 30.5072 29.5883 30.1922 29.916C29.9014 30.2315 29.8408 30.4014 29.8408 30.899C29.8408 31.433 29.8893 31.5544 30.2527 31.9185C30.5799 32.2461 30.7616 32.3311 31.1614 32.3311C31.4279 32.3311 31.7793 32.2704 31.9368 32.1976ZM23.5407 26.7727C24.0254 26.53 24.3161 26.2872 24.6069 25.8503C24.9583 25.3285 24.9946 25.1707 24.9946 24.394C24.9946 23.6173 24.9583 23.4716 24.6069 22.9376C24.0132 22.0517 23.3711 21.7483 22.1959 21.7968C21.3357 21.8332 21.2388 21.8575 20.7057 22.2944C20.0151 22.8648 19.7849 23.3867 19.7849 24.394C19.7849 25.2557 19.9303 25.6562 20.4513 26.2387C21.2388 27.1246 22.414 27.331 23.5407 26.7727ZM36.2015 23.3503C36.9769 22.61 37.1707 21.7604 36.7951 20.8502C36.2984 19.6609 34.9657 19.1511 33.8026 19.7215C32.9909 20.1099 32.7001 20.5711 32.6516 21.542C32.591 22.5007 32.8334 23.0226 33.5845 23.5444C33.9722 23.8114 34.1176 23.8479 34.893 23.8114C35.7047 23.775 35.8017 23.7386 36.2015 23.3503ZM29.4895 20.4497C29.9983 19.94 29.9741 19.3332 29.4289 18.787C29.1139 18.4715 28.92 18.3744 28.5687 18.3744C27.551 18.3744 27.0421 19.6123 27.7327 20.4254C27.9993 20.741 28.1325 20.8017 28.5929 20.8017C29.0291 20.8017 29.1987 20.7288 29.4895 20.4497ZM11.4494 14.8792C13.7271 11.5296 16.9499 9.2965 20.633 8.54405C21.7476 8.31346 22.1717 8.28919 24.0254 8.33773C25.8185 8.38628 26.3152 8.44696 27.2723 8.71396C27.8902 8.88387 28.5566 9.11445 28.7504 9.21154C29.1381 9.40572 29.4773 9.45427 29.4773 9.2965C29.4773 9.11445 26.9089 7.85228 25.8427 7.51247C24.9461 7.20906 24.5706 7.16052 22.8744 7.11197C20.7299 7.05129 19.4578 7.2212 17.9918 7.75519C17.5557 7.91297 17.168 8.02219 17.1437 7.99792C16.9983 7.85228 19.5911 6.61439 21.1055 6.1168C23.2136 5.43717 26.4727 5.32795 29.2108 5.87408C29.9741 6.01971 30.6162 6.10466 30.6526 6.06826C30.7374 5.9833 30.7979 6.01971 29.962 5.60708C29.5985 5.42504 28.8837 5.13377 28.3869 4.96386C26.5454 4.33277 26.1698 4.28423 23.7346 4.28423C21.057 4.28423 21.0207 4.23568 23.153 3.53178C25.0915 2.88856 26.1698 2.70652 28.3869 2.6337C30.7616 2.54875 32.7607 2.73079 34.3841 3.14342C35.7169 3.49537 35.9349 3.50751 35.5957 3.25265C34.8445 2.67011 32.2276 1.6628 30.5072 1.31085C29.2593 1.05599 26.2425 0.958897 24.934 1.1288C22.6805 1.43221 19.167 2.88856 17.1801 4.34491C13.8119 6.8207 11.0496 11.1776 10.2742 15.2311C10.1773 15.7773 10.0925 16.4447 10.0925 16.7239V17.2215L10.5771 16.3355C10.8436 15.8379 11.2435 15.1826 11.4494 14.8792ZM24.7523 16.3598C25.4308 15.9472 25.6731 15.0491 25.2854 14.3816C25.0431 13.9811 24.4736 13.6413 24.0254 13.6413C23.5771 13.6413 22.9834 13.9932 22.8259 14.3452C22.6563 14.7093 22.6563 15.4981 22.8259 15.8622C23.1167 16.4933 24.0859 16.7482 24.7523 16.3598Z" fill="#98ACF8"/>
<path d="M26.2427 45.3776C26.6062 45.0499 27.1756 44.965 27.1756 45.232C27.1756 45.5232 26.897 45.681 26.4002 45.681L25.9034 45.6689L26.2427 45.3776Z" fill="white"/>
<path d="M26.2423 35.2802C26.1575 35.2559 26.0848 35.1224 26.0848 34.9889C26.0848 34.819 26.1696 34.7583 26.4241 34.7583C26.7754 34.7583 27.2964 35.0496 27.2964 35.2559C27.2964 35.3652 26.5089 35.3894 26.2423 35.2802Z" fill="white"/>
</svg>
