<svg width="71" height="71" viewBox="0 0 71 71" fill="none" xmlns="http://www.w3.org/2000/svg">
<path d="M32.4371 70.3767C29.1536 70.1282 24.3942 69.018 22.0725 67.9576C19.5353 66.7977 17.6945 65.8532 16.3513 64.9751C6.30176 58.4136 0.414674 47.5274 0.464424 35.5975C0.481007 28.7046 2.48759 22.0602 6.23542 16.4598C7.62842 14.3886 8.50734 13.3116 10.431 11.3398C13.3828 8.34074 16.2186 6.28613 19.9996 4.43035C25.0078 1.99464 29.8169 0.884492 35.4221 0.901062C48.3737 0.9342 59.9654 7.90993 66.1676 19.4091C68.34 23.4355 69.6169 27.8927 70.1808 33.4434C70.5788 37.4532 69.6335 43.5176 67.9088 47.9748C66.0515 52.7965 63.5143 56.7069 59.8991 60.2859C56.8146 63.3513 53.6472 65.555 49.8496 67.2948C47.6772 68.2724 44.1947 69.4654 43.9293 69.2997C43.4318 68.9849 41.873 66.2343 41.2263 64.5111C40.7951 63.3844 40.7785 63.4175 41.9228 61.9263C43.8796 59.3746 44.4434 55.9944 43.4484 52.6143L43.067 51.3384L43.8796 50.5928C45.6208 49.0187 48.3073 47.776 50.3305 47.5772C52.3537 47.3949 54.609 48.2399 56.0683 49.7146C56.9804 50.6425 57.1297 50.6094 56.4663 49.6483C55.9688 48.9524 54.9241 48.0411 54.1115 47.6269C53.1828 47.1464 51.1099 46.699 49.8662 46.699C47.9923 46.699 45.7701 47.3783 44.659 48.2565C42.9343 49.6649 42.4534 50.0129 42.3373 50.0129C42.271 50.0129 41.8067 49.5986 41.3092 49.085C40.8117 48.5713 39.9493 47.8588 39.4187 47.5109C38.2413 46.7321 35.8698 45.9368 34.2613 45.7877C30.6129 45.4397 28.8053 45.1746 27.5616 44.7935C22.7027 43.352 18.2086 39.6735 15.4723 34.885C14.4939 33.1783 13.3828 29.9473 13.1009 28.0087C12.8024 25.9209 12.9848 21.1323 13.4326 19.3594C14.411 15.5153 16.7161 11.754 20.0825 8.53957C20.8288 7.81052 21.4092 7.19745 21.376 7.16431C21.2765 7.08146 19.1207 8.19161 17.9267 8.93724C11.5089 12.9802 6.21884 19.9725 4.47759 26.7162C3.84742 29.1354 3.66501 30.6598 3.56551 34.1062C3.44942 38 3.66501 40.2038 4.49417 43.4845C5.22384 46.4173 7.34651 50.6425 9.55209 53.5753C13.2004 58.397 18.8719 62.4565 24.7424 64.3951C27.7772 65.4059 29.4687 65.6213 33.6477 65.555L37.1302 65.5053L38.4734 64.8094C39.2031 64.4117 39.8664 64.0969 39.9493 64.0969C40.0157 64.0969 40.2313 64.5774 40.4468 65.1573C40.6624 65.7373 41.2926 66.98 41.873 67.9244L42.9343 69.6476L41.4916 69.9293C40.0488 70.211 35.9859 70.5755 34.7588 70.5258C34.3939 70.5258 33.3492 70.4595 32.4371 70.3767ZM53.2326 60.2693C53.6638 59.8385 53.7467 59.6397 53.7467 58.9272C53.7467 58.1982 53.6803 58.0325 53.1828 57.5354C52.7351 57.088 52.4863 56.972 51.9391 56.972C50.6788 56.972 49.9325 57.6679 49.9325 58.8775C49.9325 60.1202 50.5958 60.7664 51.8728 60.783C52.6024 60.783 52.8014 60.7167 53.2326 60.2693ZM44.1781 44.8598C44.7419 44.5947 45.1233 43.8656 45.1233 43.004C45.1233 42.3909 45.0404 42.159 44.6093 41.7447C44.1615 41.2973 43.9957 41.2311 43.1831 41.2311C42.3705 41.2311 42.2213 41.2973 41.7901 41.7447C41.3921 42.1755 41.3092 42.4075 41.3092 43.0868C41.3092 43.8159 41.3755 43.9816 41.873 44.4787C42.3208 44.926 42.5695 45.042 43.1168 45.042C43.4816 45.042 43.9625 44.9592 44.1781 44.8598ZM32.6858 37.4532C33.3492 37.1218 33.7472 36.7905 34.1452 36.194C34.6261 35.4815 34.6758 35.2661 34.6758 34.2056C34.6758 33.1452 34.6261 32.9463 34.1452 32.2173C33.3326 31.0077 32.4537 30.5935 30.8451 30.6598C29.6677 30.7095 29.535 30.7426 28.8053 31.3391C27.8601 32.1179 27.545 32.8304 27.545 34.2056C27.545 35.3821 27.744 35.9288 28.4571 36.7242C29.535 37.9337 31.1436 38.2154 32.6858 37.4532ZM50.0154 32.7807C51.0768 31.7699 51.3421 30.6101 50.828 29.3673C50.1481 27.7435 48.3239 27.0476 46.7319 27.8264C45.6208 28.3566 45.2228 28.9863 45.1565 30.3118C45.0736 31.6208 45.4053 32.3333 46.4334 33.0458C46.9641 33.4103 47.1631 33.46 48.2244 33.4103C49.3355 33.3606 49.4682 33.3109 50.0154 32.7807ZM40.8283 28.8206C41.5248 28.1246 41.4916 27.2962 40.7453 26.5505C40.3142 26.1197 40.0488 25.9872 39.5679 25.9872C38.1749 25.9872 37.4784 27.6773 38.4237 28.7874C38.7885 29.2182 38.9709 29.3011 39.6011 29.3011C40.1981 29.3011 40.4303 29.2017 40.8283 28.8206ZM16.1357 21.2152C19.2533 16.642 23.6645 13.5932 28.7058 12.5659C30.2315 12.2511 30.8119 12.218 33.3492 12.2843C35.8035 12.3505 36.4834 12.4334 37.7935 12.7979C38.6393 13.0299 39.5513 13.3447 39.8167 13.4773C40.3473 13.7424 40.8117 13.8087 40.8117 13.5932C40.8117 13.3447 37.296 11.6215 35.8367 11.1575C34.6095 10.7433 34.0954 10.677 31.7738 10.6108C28.8385 10.5279 27.0973 10.7599 25.0907 11.4889C24.4937 11.7043 23.963 11.8535 23.9298 11.8203C23.7308 11.6215 27.2797 9.9314 29.3526 9.25206C32.2381 8.32417 36.699 8.17504 40.4468 8.92067C41.4916 9.1195 42.3705 9.23549 42.4203 9.18578C42.5363 9.06979 42.6193 9.1195 41.475 8.55614C40.9775 8.3076 39.9991 7.90993 39.3192 7.67796C36.7985 6.81635 36.2844 6.75007 32.9512 6.75007C29.2863 6.75007 29.2365 6.68379 32.1552 5.72277C34.8085 4.84459 36.2844 4.59605 39.3192 4.49663C42.5695 4.38064 45.3058 4.62918 47.5279 5.19254C49.3521 5.67306 49.6506 5.68963 49.1863 5.34167C48.1581 4.54634 44.5761 3.17107 42.2213 2.69056C40.5132 2.3426 36.3839 2.21005 34.5929 2.44202C31.5084 2.85625 26.6993 4.84459 23.9796 6.83292C19.3694 10.2131 15.5884 16.1615 14.5271 21.6957C14.3944 22.4413 14.2783 23.3526 14.2783 23.7337V24.4131L14.9417 23.2035C15.3065 22.5242 15.8538 21.6294 16.1357 21.2152ZM34.3442 23.2367C35.2728 22.6733 35.6045 21.4472 35.0738 20.5358C34.7422 19.989 33.9628 19.5251 33.3492 19.5251C32.7356 19.5251 31.923 20.0056 31.7074 20.4861C31.4753 20.9832 31.4753 22.0602 31.7074 22.5573C32.1054 23.4189 33.4321 23.7669 34.3442 23.2367Z" fill="#6F4A8E"/>
</svg>
