<svg width="60" height="60" viewBox="0 0 60 60" fill="none" xmlns="http://www.w3.org/2000/svg">
<rect width="60" height="60" fill="#C4C4C4"/>
<path d="M14.576 31.859H18.916V33H13.218V22.969H14.576V31.859ZM23.0873 25.797C23.6053 25.797 24.072 25.8833 24.4873 26.056C24.9073 26.2287 25.262 26.4737 25.5513 26.791C25.8453 27.1083 26.0693 27.4933 26.2233 27.946C26.382 28.394 26.4613 28.8957 26.4613 29.451C26.4613 30.011 26.382 30.515 26.2233 30.963C26.0693 31.411 25.8453 31.7937 25.5513 32.111C25.262 32.4283 24.9073 32.6733 24.4873 32.846C24.072 33.014 23.6053 33.098 23.0873 33.098C22.5693 33.098 22.1003 33.014 21.6803 32.846C21.265 32.6733 20.9103 32.4283 20.6163 32.111C20.3223 31.7937 20.096 31.411 19.9373 30.963C19.7786 30.515 19.6993 30.011 19.6993 29.451C19.6993 28.8957 19.7786 28.394 19.9373 27.946C20.096 27.4933 20.3223 27.1083 20.6163 26.791C20.9103 26.4737 21.265 26.2287 21.6803 26.056C22.1003 25.8833 22.5693 25.797 23.0873 25.797ZM23.0873 32.125C23.7873 32.125 24.31 31.8917 24.6553 31.425C25.0006 30.9537 25.1733 30.298 25.1733 29.458C25.1733 28.6133 25.0006 27.9553 24.6553 27.484C24.31 27.0127 23.7873 26.777 23.0873 26.777C22.7326 26.777 22.4246 26.8377 22.1633 26.959C21.902 27.0803 21.6826 27.2553 21.5053 27.484C21.3326 27.7127 21.202 27.995 21.1133 28.331C21.0293 28.6623 20.9873 29.038 20.9873 29.458C20.9873 29.878 21.0293 30.2537 21.1133 30.585C21.202 30.9163 21.3326 31.1963 21.5053 31.425C21.6826 31.649 21.902 31.8217 22.1633 31.943C22.4246 32.0643 22.7326 32.125 23.0873 32.125ZM30.6336 25.79C30.9416 25.79 31.2286 25.825 31.4946 25.895C31.7653 25.9603 32.0103 26.0583 32.2296 26.189H34.1546V26.651C34.1546 26.805 34.0566 26.903 33.8606 26.945L33.0556 27.057C33.2143 27.3603 33.2936 27.6987 33.2936 28.072C33.2936 28.4173 33.2259 28.7323 33.0906 29.017C32.9599 29.297 32.7756 29.5373 32.5376 29.738C32.3043 29.9387 32.0243 30.0927 31.6976 30.2C31.3756 30.3073 31.0209 30.361 30.6336 30.361C30.3023 30.361 29.9896 30.3213 29.6956 30.242C29.5463 30.3353 29.4319 30.4357 29.3526 30.543C29.2779 30.6503 29.2406 30.7553 29.2406 30.858C29.2406 31.026 29.3083 31.1543 29.4436 31.243C29.5789 31.327 29.7586 31.3877 29.9826 31.425C30.2066 31.4623 30.4609 31.4857 30.7456 31.495C31.0303 31.5043 31.3196 31.5207 31.6136 31.544C31.9123 31.5627 32.2039 31.5977 32.4886 31.649C32.7733 31.7003 33.0276 31.7843 33.2516 31.901C33.4756 32.0177 33.6553 32.1787 33.7906 32.384C33.9259 32.5893 33.9936 32.8553 33.9936 33.182C33.9936 33.4853 33.9166 33.7793 33.7626 34.064C33.6133 34.3487 33.3963 34.6007 33.1116 34.82C32.8269 35.044 32.4793 35.2213 32.0686 35.352C31.6579 35.4873 31.1936 35.555 30.6756 35.555C30.1576 35.555 29.7026 35.5037 29.3106 35.401C28.9233 35.2983 28.6013 35.1607 28.3446 34.988C28.0879 34.8153 27.8943 34.6147 27.7636 34.386C27.6376 34.162 27.5746 33.9263 27.5746 33.679C27.5746 33.329 27.6843 33.0327 27.9036 32.79C28.1276 32.5427 28.4333 32.3467 28.8206 32.202C28.6199 32.1087 28.4589 31.985 28.3376 31.831C28.2209 31.6723 28.1626 31.4623 28.1626 31.201C28.1626 31.0983 28.1813 30.9933 28.2186 30.886C28.2559 30.774 28.3119 30.6643 28.3866 30.557C28.4659 30.4497 28.5616 30.347 28.6736 30.249C28.7856 30.151 28.9163 30.0647 29.0656 29.99C28.7156 29.794 28.4403 29.535 28.2396 29.213C28.0436 28.8863 27.9456 28.506 27.9456 28.072C27.9456 27.7267 28.0109 27.414 28.1416 27.134C28.2769 26.8493 28.4636 26.609 28.7016 26.413C28.9396 26.2123 29.2219 26.0583 29.5486 25.951C29.8799 25.8437 30.2416 25.79 30.6336 25.79ZM32.8456 33.385C32.8456 33.2077 32.7966 33.0653 32.6986 32.958C32.6006 32.8507 32.4676 32.769 32.2996 32.713C32.1316 32.6523 31.9379 32.608 31.7186 32.58C31.4993 32.552 31.2683 32.5333 31.0256 32.524C30.7829 32.51 30.5356 32.496 30.2836 32.482C30.0316 32.468 29.7913 32.4423 29.5626 32.405C29.2966 32.531 29.0796 32.685 28.9116 32.867C28.7483 33.049 28.6666 33.266 28.6666 33.518C28.6666 33.6767 28.7063 33.8237 28.7856 33.959C28.8696 34.099 28.9956 34.218 29.1636 34.316C29.3316 34.4187 29.5416 34.498 29.7936 34.554C30.0503 34.6147 30.3513 34.645 30.6966 34.645C31.0326 34.645 31.3336 34.6147 31.5996 34.554C31.8656 34.4933 32.0896 34.407 32.2716 34.295C32.4583 34.183 32.6006 34.05 32.6986 33.896C32.7966 33.742 32.8456 33.5717 32.8456 33.385ZM30.6336 29.535C30.8856 29.535 31.1073 29.5 31.2986 29.43C31.4946 29.36 31.6579 29.262 31.7886 29.136C31.9193 29.01 32.0173 28.8607 32.0826 28.688C32.1479 28.5107 32.1806 28.317 32.1806 28.107C32.1806 27.673 32.0476 27.3277 31.7816 27.071C31.5203 26.8143 31.1376 26.686 30.6336 26.686C30.1343 26.686 29.7516 26.8143 29.4856 27.071C29.2243 27.3277 29.0936 27.673 29.0936 28.107C29.0936 28.317 29.1263 28.5107 29.1916 28.688C29.2616 28.8607 29.3619 29.01 29.4926 29.136C29.6233 29.262 29.7843 29.36 29.9756 29.43C30.1669 29.5 30.3863 29.535 30.6336 29.535ZM38.517 25.797C39.035 25.797 39.5017 25.8833 39.917 26.056C40.337 26.2287 40.6917 26.4737 40.981 26.791C41.275 27.1083 41.499 27.4933 41.653 27.946C41.8117 28.394 41.891 28.8957 41.891 29.451C41.891 30.011 41.8117 30.515 41.653 30.963C41.499 31.411 41.275 31.7937 40.981 32.111C40.6917 32.4283 40.337 32.6733 39.917 32.846C39.5017 33.014 39.035 33.098 38.517 33.098C37.999 33.098 37.53 33.014 37.11 32.846C36.6947 32.6733 36.34 32.4283 36.046 32.111C35.752 31.7937 35.5257 31.411 35.367 30.963C35.2083 30.515 35.129 30.011 35.129 29.451C35.129 28.8957 35.2083 28.394 35.367 27.946C35.5257 27.4933 35.752 27.1083 36.046 26.791C36.34 26.4737 36.6947 26.2287 37.11 26.056C37.53 25.8833 37.999 25.797 38.517 25.797ZM38.517 32.125C39.217 32.125 39.7397 31.8917 40.085 31.425C40.4303 30.9537 40.603 30.298 40.603 29.458C40.603 28.6133 40.4303 27.9553 40.085 27.484C39.7397 27.0127 39.217 26.777 38.517 26.777C38.1623 26.777 37.8543 26.8377 37.593 26.959C37.3317 27.0803 37.1123 27.2553 36.935 27.484C36.7623 27.7127 36.6317 27.995 36.543 28.331C36.459 28.6623 36.417 29.038 36.417 29.458C36.417 29.878 36.459 30.2537 36.543 30.585C36.6317 30.9163 36.7623 31.1963 36.935 31.425C37.1123 31.649 37.3317 31.8217 37.593 31.943C37.8543 32.0643 38.1623 32.125 38.517 32.125Z" fill="black"/>
</svg>
